<svg version="1.1" xmlns="http://www.w3.org/2000/svg" viewBox="0 0 684.9895887374878 540.1458587646484" width="684.9895887374878" height="540.1458587646484">
  <!-- svg-source:excalidraw -->

  <defs>
    <style class="style-fonts">
      @font-face {
        font-family: "Virgil";
        src: url("https://file%2B.vscode-resource.vscode-cdn.net/Users/mab/.vscode/extensions/pomdtr.excalidraw-editor-3.7.3/public//dist/excalidraw-assets/Virgil.woff2");
      }
      @font-face {
        font-family: "Cascadia";
        src: url("https://file%2B.vscode-resource.vscode-cdn.net/Users/mab/.vscode/extensions/pomdtr.excalidraw-editor-3.7.3/public//dist/excalidraw-assets/Cascadia.woff2");
      }
      @font-face {
        font-family: "Assistant";
        src: url("https://file%2B.vscode-resource.vscode-cdn.net/Users/mab/.vscode/extensions/pomdtr.excalidraw-editor-3.7.3/public//dist/excalidraw-assets/Assistant-Regular.woff2");
      }
    </style>

  </defs>
  <rect x="0" y="0" width="684.9895887374878" height="540.1458587646484" fill="#ffffff"></rect><g stroke-linecap="round" transform="translate(167.11257457733154 10) rotate(0 178.7920379638672 38.204429626464844)"><path d="M0 0 C93.11 -1.29, 185.75 -2.06, 357.58 0 M0 0 C125.99 -0.77, 251.32 -0.82, 357.58 0 M357.58 0 C359.18 22.67, 356.7 43.75, 357.58 76.41 M357.58 0 C358.41 19.42, 358.57 37.81, 357.58 76.41 M357.58 76.41 C236.62 74.06, 118.28 75.74, 0 76.41 M357.58 76.41 C242.14 75.63, 126.59 75.07, 0 76.41 M0 76.41 C-2.21 53, -0.06 26.99, 0 0 M0 76.41 C-0.68 61.65, -1.32 45.57, 0 0" stroke="#1e1e1e" stroke-width="2" fill="none"></path></g><g stroke-linecap="round" transform="translate(10 25.859390258789062) rotate(0 65.16047668457031 22)"><path d="M0 0 C28.13 1.34, 53.25 -0.31, 130.32 0 M0 0 C36.26 -0.63, 73.86 -2.2, 130.32 0 M130.32 0 C129.39 8.42, 130.51 21.32, 130.32 44 M130.32 0 C130.87 15.99, 129.35 30.91, 130.32 44 M130.32 44 C86.66 45.48, 46.91 45.5, 0 44 M130.32 44 C82.07 43.57, 32.58 44.73, 0 44 M0 44 C0.82 27.15, 0.39 15.09, 0 0 M0 44 C0.8 30.49, 0.15 17.83, 0 0" stroke="#1e1e1e" stroke-width="2" fill="none"></path></g><g transform="translate(48.520484924316406 37.85939025878906) rotate(0 26.639991760253906 10)"><text x="26.639991760253906" y="0" font-family="Virgil, Segoe UI Emoji" font-size="16px" fill="#1e1e1e" text-anchor="middle" style="white-space: pre;" direction="ltr" dominant-baseline="text-before-edge">Date 1</text></g><g stroke-linecap="round" transform="translate(184.32094860076904 25.976577758789062) rotate(0 20.6171875 22)"><path d="M0 0 C8.89 -0.66, 18.69 0.88, 41.23 0 M0 0 C16.37 -0.62, 32.01 0.33, 41.23 0 M41.23 0 C40.99 16.51, 41.65 30.63, 41.23 44 M41.23 0 C41.15 11.87, 41.58 23.79, 41.23 44 M41.23 44 C30.66 45.05, 18.81 44, 0 44 M41.23 44 C27.7 44.1, 15.17 44.1, 0 44 M0 44 C0.18 30.67, -0.19 14.63, 0 0 M0 44 C-0.2 30.82, 0.32 18.3, 0 0" stroke="#1e1e1e" stroke-width="2" fill="none"></path></g><g transform="translate(194.72214031219482 37.97657775878906) rotate(0 10.215995788574219 10)"><text x="10.215995788574219" y="0" font-family="Virgil, Segoe UI Emoji" font-size="16px" fill="#1e1e1e" text-anchor="middle" style="white-space: pre;" direction="ltr" dominant-baseline="text-before-edge">2t</text></g><g stroke-linecap="round" transform="translate(241.6016736984253 25.976577758789062) rotate(0 20.6171875 22)"><path d="M0 0 C13.04 1.05, 27.36 -0.37, 41.23 0 M0 0 C14.38 0.65, 29.79 -0.13, 41.23 0 M41.23 0 C41.77 9.01, 40.96 20.75, 41.23 44 M41.23 0 C41.24 14.22, 41.01 28.95, 41.23 44 M41.23 44 C26.01 44, 9.54 44.42, 0 44 M41.23 44 C31.9 44.33, 22.18 44.36, 0 44 M0 44 C-0.14 33.18, -0.12 24.46, 0 0 M0 44 C0.46 33.89, -0.08 23.48, 0 0" stroke="#1e1e1e" stroke-width="2" fill="none"></path></g><g transform="translate(250.7068754196167 37.97657775878906) rotate(0 11.511985778808594 10)"><text x="11.511985778808594" y="0" font-family="Virgil, Segoe UI Emoji" font-size="16px" fill="#1e1e1e" text-anchor="middle" style="white-space: pre;" direction="ltr" dominant-baseline="text-before-edge">msl</text></g><g stroke-linecap="round" transform="translate(298.88239879608153 25.976577758789062) rotate(0 20.6171875 22)"><path d="M0 0 C10.75 -0.69, 20.22 0.16, 41.23 0 M0 0 C8.57 -0.51, 16.17 -0.23, 41.23 0 M41.23 0 C41.1 17.41, 41.68 32.36, 41.23 44 M41.23 0 C41.2 11.08, 41.73 23.13, 41.23 44 M41.23 44 C25.44 44.2, 8.6 43.2, 0 44 M41.23 44 C26.99 44.35, 12.13 44.24, 0 44 M0 44 C-0.04 27.11, -0.64 9.16, 0 0 M0 44 C-0.31 32.89, -0.56 21.42, 0 0" stroke="#1e1e1e" stroke-width="2" fill="none"></path></g><g transform="translate(307.2835905075073 37.97657775878906) rotate(0 12.215995788574219 10)"><text x="12.215995788574219" y="0" font-family="Virgil, Segoe UI Emoji" font-size="16px" fill="#1e1e1e" text-anchor="middle" style="white-space: pre;" direction="ltr" dominant-baseline="text-before-edge">10u</text></g><g stroke-linecap="round" transform="translate(356.16312389373775 25.976577758789062) rotate(0 20.6171875 22)"><path d="M0 0 C16.75 0.45, 31.36 -0.64, 41.23 0 M0 0 C15.66 0.09, 32.45 0.42, 41.23 0 M41.23 0 C41.5 8.67, 40.75 18.79, 41.23 44 M41.23 0 C41.62 10.38, 41.63 20.14, 41.23 44 M41.23 44 C28.94 43.29, 18.49 44.55, 0 44 M41.23 44 C26.56 44.25, 13.09 44.07, 0 44 M0 44 C-0.64 34.28, -0.43 25.82, 0 0 M0 44 C-0.32 28.81, 0.38 13.93, 0 0" stroke="#1e1e1e" stroke-width="2" fill="none"></path></g><g transform="translate(364.9243162155151 37.97657775878906) rotate(0 11.855995178222656 10)"><text x="11.855995178222656" y="0" font-family="Virgil, Segoe UI Emoji" font-size="16px" fill="#1e1e1e" text-anchor="middle" style="white-space: pre;" direction="ltr" dominant-baseline="text-before-edge">10v</text></g><g stroke-linecap="round" transform="translate(413.443848991394 25.976577758789062) rotate(0 20.6171875 22)"><path d="M0 0 C9.32 -0.82, 21.51 0.51, 41.23 0 M0 0 C10.01 0.3, 18.83 -0.11, 41.23 0 M41.23 0 C40.88 17.61, 40.55 34.47, 41.23 44 M41.23 0 C41.86 11.43, 41.33 22.24, 41.23 44 M41.23 44 C28.38 44.34, 15.02 44.09, 0 44 M41.23 44 C27.21 44.02, 11.82 44.03, 0 44 M0 44 C-0.3 29.75, 0.57 13.59, 0 0 M0 44 C0.49 29.73, 0.06 14.79, 0 0" stroke="#1e1e1e" stroke-width="2" fill="none"></path></g><g transform="translate(425.5970472335815 37.97657775878906) rotate(0 8.4639892578125 10)"><text x="8.4639892578125" y="0" font-family="Virgil, Segoe UI Emoji" font-size="16px" fill="#1e1e1e" text-anchor="middle" style="white-space: pre;" direction="ltr" dominant-baseline="text-before-edge">tp</text></g><g stroke-linecap="round" transform="translate(470.7245740890503 25.976577758789062) rotate(0 20.6171875 22)"><path d="M0 0 C14.68 0.74, 26.93 -0.59, 41.23 0 M0 0 C11.51 -0.24, 24.38 0.04, 41.23 0 M41.23 0 C40.39 10.45, 40.66 22.15, 41.23 44 M41.23 0 C41.34 17.66, 41.55 34.79, 41.23 44 M41.23 44 C32.47 44.34, 23.28 43.37, 0 44 M41.23 44 C27.22 43.96, 14.26 43.66, 0 44 M0 44 C0.53 31.51, 0.37 18.79, 0 0 M0 44 C-0.25 31.2, -0.59 19.55, 0 0" stroke="#1e1e1e" stroke-width="2" fill="none"></path></g><g transform="translate(484.7657804489136 37.97657775878906) rotate(0 6.575981140136719 10)"><text x="6.575981140136719" y="0" font-family="Virgil, Segoe UI Emoji" font-size="16px" fill="#1e1e1e" text-anchor="middle" style="white-space: pre;" direction="ltr" dominant-baseline="text-before-edge">...</text></g><g stroke-linecap="round" transform="translate(576.0833387374878 25.976577758789062) rotate(0 49.453125 22)"><path d="M0 0 C31.44 1.92, 66.79 1.94, 98.91 0 M0 0 C37.04 -0.86, 72.84 0.3, 98.91 0 M98.91 0 C100.14 13.93, 99.71 32.65, 98.91 44 M98.91 0 C98.96 12.21, 98.32 25.28, 98.91 44 M98.91 44 C61.61 42.23, 22.85 45.02, 0 44 M98.91 44 C66.08 43.71, 34.62 42.17, 0 44 M0 44 C-1.45 27.85, 0.19 11.72, 0 0 M0 44 C0.02 29.83, -0.7 16.02, 0 0" stroke="#1e1e1e" stroke-width="2" fill="none"></path></g><g transform="translate(606.5444746017456 37.97657775878906) rotate(0 18.991989135742188 10)"><text x="18.991989135742188" y="0" font-family="Virgil, Segoe UI Emoji" font-size="16px" fill="#1e1e1e" text-anchor="middle" style="white-space: pre;" direction="ltr" dominant-baseline="text-before-edge">File 1</text></g><g stroke-linecap="round"><g transform="translate(137.30951134490965 48.577065765719254) rotate(0 15.629296874999994 -0.3466796875)"><path d="M0.03 -0.55 C5.22 -0.6, 26.04 -0.72, 31.27 -0.7 M-0.62 0.36 C4.49 0.44, 25.55 0.28, 30.85 -0.01" stroke="#1e1e1e" stroke-width="2" fill="none"></path></g><g transform="translate(137.30951134490965 48.577065765719254) rotate(0 15.629296874999994 -0.3466796875)"><path d="M16.3 5.73 C20.21 3.9, 25.65 2.27, 30.85 -0.01 M16.3 5.73 C21.09 3.58, 26.1 2.06, 30.85 -0.01" stroke="#1e1e1e" stroke-width="2" fill="none"></path></g><g transform="translate(137.30951134490965 48.577065765719254) rotate(0 15.629296874999994 -0.3466796875)"><path d="M16.02 -4.96 C19.98 -3.36, 25.51 -1.55, 30.85 -0.01 M16.02 -4.96 C20.89 -3.38, 26 -1.16, 30.85 -0.01" stroke="#1e1e1e" stroke-width="2" fill="none"></path></g></g><mask></mask><g stroke-linecap="round"><g transform="translate(525.5761365890503 47.979555412793076) rotate(0 22.854304321289106 0.14088198092410664)"><path d="M-0.46 0.09 C7.16 0.2, 38.41 0.46, 46.17 0.47 M0.3 -0.33 C7.85 -0.38, 38.36 -0.57, 45.97 -0.41" stroke="#1e1e1e" stroke-width="2" fill="none"></path></g><g transform="translate(525.5761365890503 47.979555412793076) rotate(0 22.854304321289106 0.14088198092410664)"><path d="M24.45 7.29 C32.76 5.31, 41.05 2.29, 45.97 -0.41 M24.45 7.29 C30.15 5.46, 35.88 2.75, 45.97 -0.41" stroke="#1e1e1e" stroke-width="2" fill="none"></path></g><g transform="translate(525.5761365890503 47.979555412793076) rotate(0 22.854304321289106 0.14088198092410664)"><path d="M24.54 -8.34 C32.79 -4.42, 41.05 -1.53, 45.97 -0.41 M24.54 -8.34 C30.24 -5.89, 35.95 -4.33, 45.97 -0.41" stroke="#1e1e1e" stroke-width="2" fill="none"></path></g></g><mask></mask><g stroke-linecap="round" transform="translate(167.11257457733154 98.74739990234377) rotate(0 178.7920379638672 38.204429626464844)"><path d="M0 0 C73 1.76, 144.96 1.33, 357.58 0 M0 0 C87.21 1.12, 173.85 1.05, 357.58 0 M357.58 0 C358.74 29.88, 358.58 60.13, 357.58 76.41 M357.58 0 C356.83 26.78, 358.3 53.84, 357.58 76.41 M357.58 76.41 C215.42 75.04, 76 73.2, 0 76.41 M357.58 76.41 C284.59 74, 211.05 74.31, 0 76.41 M0 76.41 C-0.54 48.3, -1.77 25.13, 0 0 M0 76.41 C1.13 49.32, 0.29 21.38, 0 0" stroke="#1e1e1e" stroke-width="2" fill="none"></path></g><g stroke-linecap="round" transform="translate(10 114.60679016113284) rotate(0 65.16047668457031 22)"><path d="M0 0 C39.75 -1.13, 77.6 -1.4, 130.32 0 M0 0 C29.14 -0.43, 57.9 0.02, 130.32 0 M130.32 0 C130.82 15.54, 131.28 30.75, 130.32 44 M130.32 0 C129.91 14.73, 129.84 29.31, 130.32 44 M130.32 44 C94.14 43.45, 54.09 40.91, 0 44 M130.32 44 C98.91 44.69, 68.89 45.05, 0 44 M0 44 C-1.9 29.37, 1.29 19.64, 0 0 M0 44 C0.81 32.54, 0.44 20.37, 0 0" stroke="#1e1e1e" stroke-width="2" fill="none"></path></g><g transform="translate(44.99248504638672 126.60679016113284) rotate(0 30.167991638183594 10)"><text x="30.167991638183594" y="0" font-family="Virgil, Segoe UI Emoji" font-size="16px" fill="#1e1e1e" text-anchor="middle" style="white-space: pre;" direction="ltr" dominant-baseline="text-before-edge">Date 2</text></g><g stroke-linecap="round" transform="translate(184.32094860076904 114.72397766113284) rotate(0 20.6171875 22)"><path d="M0 0 C13.44 -0.48, 25.55 -0.33, 41.23 0 M0 0 C15.25 0.36, 30.51 0.37, 41.23 0 M41.23 0 C41.52 15.68, 41.47 30.14, 41.23 44 M41.23 0 C40.94 9.58, 41.08 17.79, 41.23 44 M41.23 44 C31.69 43.12, 23.38 43.26, 0 44 M41.23 44 C26.76 44.24, 12.63 44.19, 0 44 M0 44 C0.91 32.75, -0.21 19.56, 0 0 M0 44 C-0.05 26.82, 0.13 10.06, 0 0" stroke="#1e1e1e" stroke-width="2" fill="none"></path></g><g transform="translate(194.72214031219482 126.72397766113284) rotate(0 10.215995788574219 10)"><text x="10.215995788574219" y="0" font-family="Virgil, Segoe UI Emoji" font-size="16px" fill="#1e1e1e" text-anchor="middle" style="white-space: pre;" direction="ltr" dominant-baseline="text-before-edge">2t</text></g><g stroke-linecap="round" transform="translate(241.6016736984253 114.72397766113284) rotate(0 20.6171875 22)"><path d="M0 0 C9.78 -0.3, 21.81 0.39, 41.23 0 M0 0 C14.42 0.28, 28.7 -0.16, 41.23 0 M41.23 0 C41.52 14.65, 40.37 29.19, 41.23 44 M41.23 0 C41.07 15.16, 40.68 31.45, 41.23 44 M41.23 44 C26.88 43, 14.3 42.91, 0 44 M41.23 44 C28.46 44.26, 15.62 43.66, 0 44 M0 44 C-0.56 34.12, 0.66 26.19, 0 0 M0 44 C0.21 30.56, 0.11 17.55, 0 0" stroke="#1e1e1e" stroke-width="2" fill="none"></path></g><g transform="translate(250.7068754196167 126.72397766113284) rotate(0 11.511985778808594 10)"><text x="11.511985778808594" y="0" font-family="Virgil, Segoe UI Emoji" font-size="16px" fill="#1e1e1e" text-anchor="middle" style="white-space: pre;" direction="ltr" dominant-baseline="text-before-edge">msl</text></g><g stroke-linecap="round" transform="translate(298.88239879608153 114.72397766113284) rotate(0 20.6171875 22)"><path d="M0 0 C10.68 0.36, 20.47 0.25, 41.23 0 M0 0 C16.3 -0.17, 32.34 -0.06, 41.23 0 M41.23 0 C40.35 15.27, 41.83 30.82, 41.23 44 M41.23 0 C40.74 17.6, 41.36 34.23, 41.23 44 M41.23 44 C33.25 42.94, 24.42 43.44, 0 44 M41.23 44 C26.86 43.63, 12.33 44.43, 0 44 M0 44 C0.91 28.61, 0.07 12.36, 0 0 M0 44 C0.03 33.87, 0.24 24.04, 0 0" stroke="#1e1e1e" stroke-width="2" fill="none"></path></g><g transform="translate(307.2835905075073 126.72397766113284) rotate(0 12.215995788574219 10)"><text x="12.215995788574219" y="0" font-family="Virgil, Segoe UI Emoji" font-size="16px" fill="#1e1e1e" text-anchor="middle" style="white-space: pre;" direction="ltr" dominant-baseline="text-before-edge">10u</text></g><g stroke-linecap="round" transform="translate(356.16312389373775 114.72397766113284) rotate(0 20.6171875 22)"><path d="M0 0 C11.11 0.11, 22.21 0.31, 41.23 0 M0 0 C16.41 0.13, 32.73 0.1, 41.23 0 M41.23 0 C41.58 12.25, 41.97 25.19, 41.23 44 M41.23 0 C41.19 8.86, 40.56 18.33, 41.23 44 M41.23 44 C32.28 43.42, 23.61 43.72, 0 44 M41.23 44 C26.99 44.18, 13.97 43.62, 0 44 M0 44 C-0.19 34.13, -0.92 24.5, 0 0 M0 44 C0.29 33.45, -0.38 23.29, 0 0" stroke="#1e1e1e" stroke-width="2" fill="none"></path></g><g transform="translate(364.9243162155151 126.72397766113284) rotate(0 11.855995178222656 10)"><text x="11.855995178222656" y="0" font-family="Virgil, Segoe UI Emoji" font-size="16px" fill="#1e1e1e" text-anchor="middle" style="white-space: pre;" direction="ltr" dominant-baseline="text-before-edge">10v</text></g><g stroke-linecap="round" transform="translate(413.443848991394 114.72397766113284) rotate(0 20.6171875 22)"><path d="M0 0 C14.39 0.34, 27.92 0.4, 41.23 0 M0 0 C12.83 0.06, 25.05 -0.52, 41.23 0 M41.23 0 C42.3 11.48, 40.47 22.34, 41.23 44 M41.23 0 C40.83 15.06, 40.9 31, 41.23 44 M41.23 44 C32.98 43.82, 24.18 43.61, 0 44 M41.23 44 C32.77 43.95, 23.34 44.56, 0 44 M0 44 C-0.73 29.13, -0.61 13.6, 0 0 M0 44 C-0.48 32.63, 0 20.99, 0 0" stroke="#1e1e1e" stroke-width="2" fill="none"></path></g><g transform="translate(425.5970472335815 126.72397766113284) rotate(0 8.4639892578125 10)"><text x="8.4639892578125" y="0" font-family="Virgil, Segoe UI Emoji" font-size="16px" fill="#1e1e1e" text-anchor="middle" style="white-space: pre;" direction="ltr" dominant-baseline="text-before-edge">tp</text></g><g stroke-linecap="round" transform="translate(470.7245740890503 114.72397766113284) rotate(0 20.6171875 22)"><path d="M0 0 C13.98 0.36, 26.13 0.28, 41.23 0 M0 0 C13.43 -0.51, 26.8 0.23, 41.23 0 M41.23 0 C40.56 10.42, 41.94 22.98, 41.23 44 M41.23 0 C40.62 9.28, 40.58 18.13, 41.23 44 M41.23 44 C30.85 43.67, 18.9 43.06, 0 44 M41.23 44 C25.54 44.33, 10.81 43.91, 0 44 M0 44 C-0.45 30.55, -0.18 17.26, 0 0 M0 44 C0.29 31.51, 0.15 18.19, 0 0" stroke="#1e1e1e" stroke-width="2" fill="none"></path></g><g transform="translate(484.7657804489136 126.72397766113284) rotate(0 6.575981140136719 10)"><text x="6.575981140136719" y="0" font-family="Virgil, Segoe UI Emoji" font-size="16px" fill="#1e1e1e" text-anchor="middle" style="white-space: pre;" direction="ltr" dominant-baseline="text-before-edge">...</text></g><g stroke-linecap="round" transform="translate(576.0833387374878 114.72397766113284) rotate(0 49.453125 22)"><path d="M0 0 C33.41 0.28, 67.18 0.67, 98.91 0 M0 0 C31.53 1.46, 63.35 1.86, 98.91 0 M98.91 0 C99.51 13.19, 96.63 23.2, 98.91 44 M98.91 0 C97.66 10.39, 98.15 21.06, 98.91 44 M98.91 44 C68.42 41.86, 42.86 44.91, 0 44 M98.91 44 C73.66 44.8, 47.56 44.08, 0 44 M0 44 C-0.42 30.13, 0.1 12.21, 0 0 M0 44 C-0.11 27.87, -0.7 12.12, 0 0" stroke="#1e1e1e" stroke-width="2" fill="none"></path></g><g transform="translate(603.0164747238159 126.72397766113284) rotate(0 22.519989013671875 10)"><text x="22.519989013671875" y="0" font-family="Virgil, Segoe UI Emoji" font-size="16px" fill="#1e1e1e" text-anchor="middle" style="white-space: pre;" direction="ltr" dominant-baseline="text-before-edge">File 2</text></g><g stroke-linecap="round"><g transform="translate(137.30951134490965 137.32446566806303) rotate(0 15.629296874999994 -0.3466796875)"><path d="M0.2 0.15 C5.42 0.05, 26.4 -0.34, 31.56 -0.57 M-0.37 -0.25 C4.79 -0.52, 26.09 -1.37, 31.29 -1.47" stroke="#1e1e1e" stroke-width="2" fill="none"></path></g><g transform="translate(137.30951134490965 137.32446566806303) rotate(0 15.629296874999994 -0.3466796875)"><path d="M16.77 4.34 C21.97 2.74, 26.93 0.22, 31.29 -1.47 M16.77 4.34 C19.62 3.46, 22.74 1.55, 31.29 -1.47" stroke="#1e1e1e" stroke-width="2" fill="none"></path></g><g transform="translate(137.30951134490965 137.32446566806303) rotate(0 15.629296874999994 -0.3466796875)"><path d="M16.43 -6.35 C21.75 -4.27, 26.82 -3.12, 31.29 -1.47 M16.43 -6.35 C19.34 -5.01, 22.52 -4.72, 31.29 -1.47" stroke="#1e1e1e" stroke-width="2" fill="none"></path></g></g><mask></mask><g stroke-linecap="round"><g transform="translate(525.5761365890503 136.72695531513685) rotate(0 22.854304321289106 0.14088198092410664)"><path d="M0.15 0.3 C7.78 0.31, 38.32 0.25, 45.83 0.22 M-0.44 -0.02 C7.13 0.06, 37.68 0.78, 45.46 0.88" stroke="#1e1e1e" stroke-width="2" fill="none"></path></g><g transform="translate(525.5761365890503 136.72695531513685) rotate(0 22.854304321289106 0.14088198092410664)"><path d="M23.84 8.29 C30.96 6.23, 36.88 2.82, 45.46 0.88 M23.84 8.29 C30.01 6.31, 34.81 3.96, 45.46 0.88" stroke="#1e1e1e" stroke-width="2" fill="none"></path></g><g transform="translate(525.5761365890503 136.72695531513685) rotate(0 22.854304321289106 0.14088198092410664)"><path d="M24.14 -7.34 C31.2 -4.64, 37.02 -3.29, 45.46 0.88 M24.14 -7.34 C30.27 -5.2, 34.99 -3.41, 45.46 0.88" stroke="#1e1e1e" stroke-width="2" fill="none"></path></g></g><mask></mask><g stroke-linecap="round" transform="translate(167.11257457733154 187.49479980468755) rotate(0 178.7920379638672 38.204429626464844)"><path d="M0 0 C101.31 -1.58, 203.06 -1.07, 357.58 0 M0 0 C86.27 0.98, 171.28 1, 357.58 0 M357.58 0 C358.26 24.2, 355.19 44.78, 357.58 76.41 M357.58 0 C358.72 17.37, 357.41 34.95, 357.58 76.41 M357.58 76.41 C271.77 75.35, 186.33 76.39, 0 76.41 M357.58 76.41 C256.24 77.44, 155.69 77.39, 0 76.41 M0 76.41 C-1.52 60.47, -0.81 42.2, 0 0 M0 76.41 C0.95 54.35, 1.09 32.01, 0 0" stroke="#1e1e1e" stroke-width="2" fill="none"></path></g><g stroke-linecap="round" transform="translate(10 203.3541900634766) rotate(0 65.16047668457031 22)"><path d="M0 0 C34.54 1.57, 70.73 -1.62, 130.32 0 M0 0 C26.58 -1.55, 52.88 -0.82, 130.32 0 M130.32 0 C131.89 7.76, 129.65 17.6, 130.32 44 M130.32 0 C130.33 14.29, 130.39 28.87, 130.32 44 M130.32 44 C102.66 44.82, 78.06 43.71, 0 44 M130.32 44 C95.71 44.03, 61.6 42.68, 0 44 M0 44 C1.01 30.16, -0.73 17.76, 0 0 M0 44 C0.21 33.16, -0.1 21.6, 0 0" stroke="#1e1e1e" stroke-width="2" fill="none"></path></g><g transform="translate(45.24048614501953 215.3541900634766) rotate(0 29.91999053955078 10)"><text x="29.91999053955078" y="0" font-family="Virgil, Segoe UI Emoji" font-size="16px" fill="#1e1e1e" text-anchor="middle" style="white-space: pre;" direction="ltr" dominant-baseline="text-before-edge">Date 3</text></g><g stroke-linecap="round" transform="translate(184.32094860076904 203.4713775634766) rotate(0 20.6171875 22)"><path d="M0 0 C13.69 -0.8, 26.44 -0.55, 41.23 0 M0 0 C15.08 0.15, 29.4 0.36, 41.23 0 M41.23 0 C40.96 15.4, 41.74 32.55, 41.23 44 M41.23 0 C41.17 16.73, 40.71 34.03, 41.23 44 M41.23 44 C28.78 43.91, 15.74 44.69, 0 44 M41.23 44 C30.06 43.69, 19.51 43.65, 0 44 M0 44 C-0.63 34.1, -0.41 23.86, 0 0 M0 44 C-0.17 28.26, -0.44 11.81, 0 0" stroke="#1e1e1e" stroke-width="2" fill="none"></path></g><g transform="translate(194.72214031219482 215.4713775634766) rotate(0 10.215995788574219 10)"><text x="10.215995788574219" y="0" font-family="Virgil, Segoe UI Emoji" font-size="16px" fill="#1e1e1e" text-anchor="middle" style="white-space: pre;" direction="ltr" dominant-baseline="text-before-edge">2t</text></g><g stroke-linecap="round" transform="translate(241.6016736984253 203.4713775634766) rotate(0 20.6171875 22)"><path d="M0 0 C15.49 -0.22, 33.57 0.42, 41.23 0 M0 0 C8.89 0.21, 18.95 0.35, 41.23 0 M41.23 0 C41.49 9.68, 42.01 18.56, 41.23 44 M41.23 0 C40.72 11.23, 41.24 22.17, 41.23 44 M41.23 44 C26.9 44.58, 12.97 43.38, 0 44 M41.23 44 C26.74 43.37, 11.91 43.98, 0 44 M0 44 C-0.22 32.08, 0.81 21.27, 0 0 M0 44 C-0.37 27.39, -0.23 9.99, 0 0" stroke="#1e1e1e" stroke-width="2" fill="none"></path></g><g transform="translate(250.7068754196167 215.4713775634766) rotate(0 11.511985778808594 10)"><text x="11.511985778808594" y="0" font-family="Virgil, Segoe UI Emoji" font-size="16px" fill="#1e1e1e" text-anchor="middle" style="white-space: pre;" direction="ltr" dominant-baseline="text-before-edge">msl</text></g><g stroke-linecap="round" transform="translate(298.88239879608153 203.4713775634766) rotate(0 20.6171875 22)"><path d="M0 0 C10.52 0.37, 19.06 0.4, 41.23 0 M0 0 C12.64 0.26, 24.19 -0.3, 41.23 0 M41.23 0 C42.18 9.94, 40.87 20.09, 41.23 44 M41.23 0 C41.04 10.21, 41.21 21.18, 41.23 44 M41.23 44 C29.21 43.54, 18.43 43.47, 0 44 M41.23 44 C31.92 43.96, 23.17 43.53, 0 44 M0 44 C0.76 31.28, 0.9 18.29, 0 0 M0 44 C-0.11 26.34, 0.18 9.43, 0 0" stroke="#1e1e1e" stroke-width="2" fill="none"></path></g><g transform="translate(307.2835905075073 215.4713775634766) rotate(0 12.215995788574219 10)"><text x="12.215995788574219" y="0" font-family="Virgil, Segoe UI Emoji" font-size="16px" fill="#1e1e1e" text-anchor="middle" style="white-space: pre;" direction="ltr" dominant-baseline="text-before-edge">10u</text></g><g stroke-linecap="round" transform="translate(356.16312389373775 203.4713775634766) rotate(0 20.6171875 22)"><path d="M0 0 C10.2 0.27, 21.87 -0.9, 41.23 0 M0 0 C13.61 -0.36, 27.75 0.03, 41.23 0 M41.23 0 C40.99 14.59, 40.83 28.35, 41.23 44 M41.23 0 C41.44 12.98, 41.16 25.66, 41.23 44 M41.23 44 C26.84 43.23, 10.59 43.83, 0 44 M41.23 44 C32.45 43.78, 24.02 43.89, 0 44 M0 44 C0.67 32.95, 0.78 21.71, 0 0 M0 44 C0.12 28.95, 0.52 13.77, 0 0" stroke="#1e1e1e" stroke-width="2" fill="none"></path></g><g transform="translate(364.9243162155151 215.4713775634766) rotate(0 11.855995178222656 10)"><text x="11.855995178222656" y="0" font-family="Virgil, Segoe UI Emoji" font-size="16px" fill="#1e1e1e" text-anchor="middle" style="white-space: pre;" direction="ltr" dominant-baseline="text-before-edge">10v</text></g><g stroke-linecap="round" transform="translate(413.443848991394 203.4713775634766) rotate(0 20.6171875 22)"><path d="M0 0 C13.59 -0.91, 27.62 0.59, 41.23 0 M0 0 C14.87 0.26, 30.62 0.52, 41.23 0 M41.23 0 C40.54 11.6, 41.08 25.23, 41.23 44 M41.23 0 C41.23 9.83, 41.63 19.87, 41.23 44 M41.23 44 C30.43 43.82, 20.38 43.09, 0 44 M41.23 44 C27.56 43.71, 13.72 44.22, 0 44 M0 44 C0.75 30.07, 0.25 17.3, 0 0 M0 44 C0.39 33.84, 0.09 24, 0 0" stroke="#1e1e1e" stroke-width="2" fill="none"></path></g><g transform="translate(425.5970472335815 215.4713775634766) rotate(0 8.4639892578125 10)"><text x="8.4639892578125" y="0" font-family="Virgil, Segoe UI Emoji" font-size="16px" fill="#1e1e1e" text-anchor="middle" style="white-space: pre;" direction="ltr" dominant-baseline="text-before-edge">tp</text></g><g stroke-linecap="round" transform="translate(470.7245740890503 203.4713775634766) rotate(0 20.6171875 22)"><path d="M0 0 C14.13 0.83, 28.14 -0.7, 41.23 0 M0 0 C10.79 0.36, 21.17 -0.29, 41.23 0 M41.23 0 C41.04 12.92, 40.38 26.13, 41.23 44 M41.23 0 C41.5 13.42, 40.91 27.47, 41.23 44 M41.23 44 C30.63 43.21, 22.17 43.57, 0 44 M41.23 44 C30.91 44.27, 21.13 44.34, 0 44 M0 44 C0.22 31.71, -0.91 20.61, 0 0 M0 44 C-0.09 30.66, 0.3 16.84, 0 0" stroke="#1e1e1e" stroke-width="2" fill="none"></path></g><g transform="translate(484.7657804489136 215.4713775634766) rotate(0 6.575981140136719 10)"><text x="6.575981140136719" y="0" font-family="Virgil, Segoe UI Emoji" font-size="16px" fill="#1e1e1e" text-anchor="middle" style="white-space: pre;" direction="ltr" dominant-baseline="text-before-edge">...</text></g><g stroke-linecap="round" transform="translate(576.0833387374878 203.4713775634766) rotate(0 49.453125 22)"><path d="M0 0 C22.76 -2.4, 41.9 -2.07, 98.91 0 M0 0 C32.98 -1.3, 66.16 -1.46, 98.91 0 M98.91 0 C97.44 9.62, 99.06 17.36, 98.91 44 M98.91 0 C98.59 12, 98.52 22.15, 98.91 44 M98.91 44 C70.29 42.39, 39.33 43, 0 44 M98.91 44 C72.65 45.5, 46.11 45.61, 0 44 M0 44 C-1.6 34.64, -0.04 26.95, 0 0 M0 44 C0.87 31.13, 0.27 19.61, 0 0" stroke="#1e1e1e" stroke-width="2" fill="none"></path></g><g transform="translate(603.2644758224487 215.4713775634766) rotate(0 22.271987915039062 10)"><text x="22.271987915039062" y="0" font-family="Virgil, Segoe UI Emoji" font-size="16px" fill="#1e1e1e" text-anchor="middle" style="white-space: pre;" direction="ltr" dominant-baseline="text-before-edge">File 3</text></g><g stroke-linecap="round"><g transform="translate(137.30951134490965 226.07186557040677) rotate(0 15.629296874999994 -0.3466796875)"><path d="M-0.48 -0.23 C4.6 -0.38, 25.55 -0.5, 30.87 -0.5 M0.27 -0.83 C5.5 -1.18, 26.75 -1.33, 31.9 -1.37" stroke="#1e1e1e" stroke-width="2" fill="none"></path></g><g transform="translate(137.30951134490965 226.07186557040677) rotate(0 15.629296874999994 -0.3466796875)"><path d="M17.26 4.1 C22.27 1.61, 28.23 0.42, 31.9 -1.37 M17.26 4.1 C22.9 1.78, 28.21 -0.13, 31.9 -1.37" stroke="#1e1e1e" stroke-width="2" fill="none"></path></g><g transform="translate(137.30951134490965 226.07186557040677) rotate(0 15.629296874999994 -0.3466796875)"><path d="M17.17 -6.6 C22.25 -5.17, 28.25 -2.44, 31.9 -1.37 M17.17 -6.6 C22.84 -4.77, 28.18 -2.54, 31.9 -1.37" stroke="#1e1e1e" stroke-width="2" fill="none"></path></g></g><mask></mask><g stroke-linecap="round"><g transform="translate(525.5761365890503 225.4743552174806) rotate(0 22.854304321289106 0.14088198092412085)"><path d="M-0.23 -0.39 C7.35 -0.23, 38.16 0.37, 45.9 0.47 M0.65 0.6 C8.15 0.63, 37.99 -0.43, 45.57 -0.41" stroke="#1e1e1e" stroke-width="2" fill="none"></path></g><g transform="translate(525.5761365890503 225.4743552174806) rotate(0 22.854304321289106 0.14088198092412085)"><path d="M24.24 7.8 C31.44 5.16, 40.36 2.65, 45.57 -0.41 M24.24 7.8 C30.06 4.96, 36.43 3.13, 45.57 -0.41" stroke="#1e1e1e" stroke-width="2" fill="none"></path></g><g transform="translate(525.5761365890503 225.4743552174806) rotate(0 22.854304321289106 0.14088198092412085)"><path d="M23.95 -7.83 C31.19 -4.7, 40.22 -1.43, 45.57 -0.41 M23.95 -7.83 C29.82 -6.19, 36.28 -3.55, 45.57 -0.41" stroke="#1e1e1e" stroke-width="2" fill="none"></path></g></g><mask></mask><g stroke-linecap="round" transform="translate(167.11257457733154 364.9895996093751) rotate(0 178.7920379638672 38.204429626464844)"><path d="M0 0 C121.37 -1.15, 242.25 -1.95, 357.58 0 M0 0 C95.72 2.52, 191.47 2.26, 357.58 0 M357.58 0 C356.01 15.51, 356.6 32.45, 357.58 76.41 M357.58 0 C357.47 23.11, 356.92 46.48, 357.58 76.41 M357.58 76.41 C221.98 75.07, 86.11 74.91, 0 76.41 M357.58 76.41 C246.71 77.49, 136.53 77.43, 0 76.41 M0 76.41 C-0.5 48.62, -1.32 18.42, 0 0 M0 76.41 C-0.42 50.47, 0.57 24.07, 0 0" stroke="#1e1e1e" stroke-width="2" fill="none"></path></g><g stroke-linecap="round" transform="translate(10 380.84898986816415) rotate(0 65.16047668457031 22)"><path d="M0 0 C51.61 -0.95, 100.75 -0.54, 130.32 0 M0 0 C37.85 -0.27, 74.35 -0.25, 130.32 0 M130.32 0 C129.52 11.71, 129.82 25.13, 130.32 44 M130.32 0 C130.73 12.42, 131.31 26.89, 130.32 44 M130.32 44 C79.72 42.67, 28.24 43.97, 0 44 M130.32 44 C96.16 44.6, 62.03 44.63, 0 44 M0 44 C0.99 28.51, -0.01 16.07, 0 0 M0 44 C-0.17 30.97, -0.55 16.06, 0 0" stroke="#1e1e1e" stroke-width="2" fill="none"></path></g><g transform="translate(45.74449157714844 392.84898986816415) rotate(0 29.415985107421875 10)"><text x="29.415985107421875" y="0" font-family="Virgil, Segoe UI Emoji" font-size="16px" fill="#1e1e1e" text-anchor="middle" style="white-space: pre;" direction="ltr" dominant-baseline="text-before-edge">Date 5</text></g><g stroke-linecap="round" transform="translate(184.32094860076904 380.96617736816415) rotate(0 20.6171875 22)"><path d="M0 0 C12.08 -0.21, 24.01 -0.74, 41.23 0 M0 0 C10.83 -0.24, 21.06 0.53, 41.23 0 M41.23 0 C40.71 9.96, 41.08 20.16, 41.23 44 M41.23 0 C41.76 13.22, 41.77 25.28, 41.23 44 M41.23 44 C29.78 43.98, 17.55 44.4, 0 44 M41.23 44 C29.34 44.57, 17.82 44.63, 0 44 M0 44 C0.05 31.86, -0.04 19.45, 0 0 M0 44 C-0.17 32, 0.23 21.03, 0 0" stroke="#1e1e1e" stroke-width="2" fill="none"></path></g><g transform="translate(194.72214031219482 392.96617736816415) rotate(0 10.215995788574219 10)"><text x="10.215995788574219" y="0" font-family="Virgil, Segoe UI Emoji" font-size="16px" fill="#1e1e1e" text-anchor="middle" style="white-space: pre;" direction="ltr" dominant-baseline="text-before-edge">2t</text></g><g stroke-linecap="round" transform="translate(241.6016736984253 380.96617736816415) rotate(0 20.6171875 22)"><path d="M0 0 C10.06 -0.78, 20.01 1.01, 41.23 0 M0 0 C8.84 0.53, 17.46 -0.11, 41.23 0 M41.23 0 C41.11 11.48, 41.06 22.88, 41.23 44 M41.23 0 C41.9 10.01, 41.35 20.94, 41.23 44 M41.23 44 C30.75 44.53, 20.9 43.88, 0 44 M41.23 44 C25.76 44.64, 9.94 44.52, 0 44 M0 44 C0.07 33.79, -0.38 22.58, 0 0 M0 44 C0.31 28.39, 0.08 12.17, 0 0" stroke="#1e1e1e" stroke-width="2" fill="none"></path></g><g transform="translate(250.7068754196167 392.96617736816415) rotate(0 11.511985778808594 10)"><text x="11.511985778808594" y="0" font-family="Virgil, Segoe UI Emoji" font-size="16px" fill="#1e1e1e" text-anchor="middle" style="white-space: pre;" direction="ltr" dominant-baseline="text-before-edge">msl</text></g><g stroke-linecap="round" transform="translate(298.88239879608153 380.96617736816415) rotate(0 20.6171875 22)"><path d="M0 0 C10.63 1.12, 21.3 0.71, 41.23 0 M0 0 C8.61 -0.43, 17.73 -0.35, 41.23 0 M41.23 0 C41.14 13.45, 40.59 27.15, 41.23 44 M41.23 0 C41.35 16.82, 41.16 33.42, 41.23 44 M41.23 44 C28.32 43.97, 16.47 43.87, 0 44 M41.23 44 C25.4 44.55, 9.44 44.3, 0 44 M0 44 C-0.36 29.09, 0.63 13.73, 0 0 M0 44 C-0.09 33.59, 0.04 22.82, 0 0" stroke="#1e1e1e" stroke-width="2" fill="none"></path></g><g transform="translate(307.2835905075073 392.96617736816415) rotate(0 12.215995788574219 10)"><text x="12.215995788574219" y="0" font-family="Virgil, Segoe UI Emoji" font-size="16px" fill="#1e1e1e" text-anchor="middle" style="white-space: pre;" direction="ltr" dominant-baseline="text-before-edge">10u</text></g><g stroke-linecap="round" transform="translate(356.16312389373775 380.96617736816415) rotate(0 20.6171875 22)"><path d="M0 0 C8.06 0.34, 16.97 -0.34, 41.23 0 M0 0 C15.09 -0.09, 30.61 0.1, 41.23 0 M41.23 0 C40.58 14.98, 42 29.08, 41.23 44 M41.23 0 C40.92 9.93, 41.24 19.47, 41.23 44 M41.23 44 C27.54 43.74, 13.09 44.24, 0 44 M41.23 44 C24.69 44.25, 8.9 44.2, 0 44 M0 44 C0.73 28.13, -0.49 13.38, 0 0 M0 44 C0.14 26.95, -0.15 9.01, 0 0" stroke="#1e1e1e" stroke-width="2" fill="none"></path></g><g transform="translate(364.9243162155151 392.96617736816415) rotate(0 11.855995178222656 10)"><text x="11.855995178222656" y="0" font-family="Virgil, Segoe UI Emoji" font-size="16px" fill="#1e1e1e" text-anchor="middle" style="white-space: pre;" direction="ltr" dominant-baseline="text-before-edge">10v</text></g><g stroke-linecap="round" transform="translate(413.443848991394 380.96617736816415) rotate(0 20.6171875 22)"><path d="M0 0 C15.45 -0.25, 33.27 -0.84, 41.23 0 M0 0 C10.06 0.07, 20.24 0.04, 41.23 0 M41.23 0 C41.88 15.55, 40.33 29.07, 41.23 44 M41.23 0 C41.16 14.39, 41.37 29.1, 41.23 44 M41.23 44 C30.24 44.22, 18.55 43.8, 0 44 M41.23 44 C26.17 44.1, 10.96 43.87, 0 44 M0 44 C-0.7 30.98, 0.8 17.02, 0 0 M0 44 C-0.21 27.67, -0.5 12.06, 0 0" stroke="#1e1e1e" stroke-width="2" fill="none"></path></g><g transform="translate(425.5970472335815 392.96617736816415) rotate(0 8.4639892578125 10)"><text x="8.4639892578125" y="0" font-family="Virgil, Segoe UI Emoji" font-size="16px" fill="#1e1e1e" text-anchor="middle" style="white-space: pre;" direction="ltr" dominant-baseline="text-before-edge">tp</text></g><g stroke-linecap="round" transform="translate(470.7245740890503 380.96617736816415) rotate(0 20.6171875 22)"><path d="M0 0 C15.31 -0.7, 28.64 -0.41, 41.23 0 M0 0 C10.8 -0.04, 21.56 -0.31, 41.23 0 M41.23 0 C40.64 17.01, 41.72 33.82, 41.23 44 M41.23 0 C41.51 13.99, 41.19 28.52, 41.23 44 M41.23 44 C30.77 43.9, 19.12 43.5, 0 44 M41.23 44 C28.3 43.85, 14.87 44.35, 0 44 M0 44 C1.06 32.22, 0.76 20.68, 0 0 M0 44 C-0.37 28.33, 0 12.86, 0 0" stroke="#1e1e1e" stroke-width="2" fill="none"></path></g><g transform="translate(484.7657804489136 392.96617736816415) rotate(0 6.575981140136719 10)"><text x="6.575981140136719" y="0" font-family="Virgil, Segoe UI Emoji" font-size="16px" fill="#1e1e1e" text-anchor="middle" style="white-space: pre;" direction="ltr" dominant-baseline="text-before-edge">...</text></g><g stroke-linecap="round" transform="translate(576.0833387374878 380.96617736816415) rotate(0 49.453125 22)"><path d="M0 0 C27.17 -0.15, 55.77 0.69, 98.91 0 M0 0 C29.67 -0.56, 59.59 0.87, 98.91 0 M98.91 0 C99.2 16.19, 98.96 34.79, 98.91 44 M98.91 0 C99 12.27, 98.9 23.8, 98.91 44 M98.91 44 C68.01 42.74, 34.7 44.66, 0 44 M98.91 44 C68.21 44.32, 37.05 43.11, 0 44 M0 44 C0.87 29.25, 0.75 12.74, 0 0 M0 44 C0.25 34.31, 0.03 22.47, 0 0" stroke="#1e1e1e" stroke-width="2" fill="none"></path></g><g transform="translate(603.7684812545776 392.96617736816415) rotate(0 21.767982482910156 10)"><text x="21.767982482910156" y="0" font-family="Virgil, Segoe UI Emoji" font-size="16px" fill="#1e1e1e" text-anchor="middle" style="white-space: pre;" direction="ltr" dominant-baseline="text-before-edge">File 5</text></g><g stroke-linecap="round"><g transform="translate(137.30951134490965 403.5666653750943) rotate(0 15.629296874999994 -0.3466796875)"><path d="M-0.24 -0.22 C5.04 -0.29, 25.98 -0.63, 31.25 -0.71 M0.64 -0.81 C5.87 -0.76, 25.74 -0.13, 30.81 -0.02" stroke="#1e1e1e" stroke-width="2" fill="none"></path></g><g transform="translate(137.30951134490965 403.5666653750943) rotate(0 15.629296874999994 -0.3466796875)"><path d="M15.98 4.93 C19.04 3.82, 22.7 2.87, 30.81 -0.02 M15.98 4.93 C20.65 3.84, 24.99 1.79, 30.81 -0.02" stroke="#1e1e1e" stroke-width="2" fill="none"></path></g><g transform="translate(137.30951134490965 403.5666653750943) rotate(0 15.629296874999994 -0.3466796875)"><path d="M16.27 -5.76 C19.24 -4.44, 22.83 -2.97, 30.81 -0.02 M16.27 -5.76 C20.87 -3.73, 25.12 -2.67, 30.81 -0.02" stroke="#1e1e1e" stroke-width="2" fill="none"></path></g></g><mask></mask><g stroke-linecap="round"><g transform="translate(525.5761365890503 402.96915502216814) rotate(0 22.854304321289106 0.14088198092412085)"><path d="M-0.22 -0.01 C7.44 0.1, 38.04 0.31, 45.69 0.39 M0.66 -0.49 C8.28 -0.54, 37.81 -0.51, 45.25 -0.52" stroke="#1e1e1e" stroke-width="2" fill="none"></path></g><g transform="translate(525.5761365890503 402.96915502216814) rotate(0 22.854304321289106 0.14088198092412085)"><path d="M23.77 7.3 C29.02 5.4, 34.48 3.44, 45.25 -0.52 M23.77 7.3 C31.33 5.07, 37.69 1.92, 45.25 -0.52" stroke="#1e1e1e" stroke-width="2" fill="none"></path></g><g transform="translate(525.5761365890503 402.96915502216814) rotate(0 22.854304321289106 0.14088198092412085)"><path d="M23.77 -8.34 C28.98 -6.42, 34.44 -4.56, 45.25 -0.52 M23.77 -8.34 C31.28 -5.37, 37.64 -3.33, 45.25 -0.52" stroke="#1e1e1e" stroke-width="2" fill="none"></path></g></g><mask></mask><g stroke-linecap="round" transform="translate(167.11257457733154 276.2421997070313) rotate(0 178.7920379638672 38.204429626464844)"><path d="M0 0 C99.63 -1.69, 196.52 -1.62, 357.58 0 M0 0 C142.52 1.55, 284.31 1.64, 357.58 0 M357.58 0 C357.83 30.85, 355.66 59.47, 357.58 76.41 M357.58 0 C358.65 28, 357.7 53.71, 357.58 76.41 M357.58 76.41 C221.12 77.31, 82.85 76.43, 0 76.41 M357.58 76.41 C279.81 78.78, 202.41 77.99, 0 76.41 M0 76.41 C0.34 57.74, 0.65 40.94, 0 0 M0 76.41 C-0.85 53.7, -0.26 29.05, 0 0" stroke="#1e1e1e" stroke-width="2" fill="none"></path></g><g stroke-linecap="round" transform="translate(10 292.1015899658204) rotate(0 65.16047668457031 22)"><path d="M0 0 C45.69 -2.43, 92.87 1.06, 130.32 0 M0 0 C35.85 -0.79, 72.63 0.22, 130.32 0 M130.32 0 C131.12 11.32, 130.09 27.6, 130.32 44 M130.32 0 C131.53 16.14, 130.04 34.09, 130.32 44 M130.32 44 C92.89 45.66, 52.42 43.43, 0 44 M130.32 44 C104.88 42.03, 77.31 42.31, 0 44 M0 44 C-0.73 32.53, 0.18 20.4, 0 0 M0 44 C0.89 30.73, -0.13 18.56, 0 0" stroke="#1e1e1e" stroke-width="2" fill="none"></path></g><g transform="translate(45.56848907470703 304.1015899658204) rotate(0 29.59198760986328 10)"><text x="29.59198760986328" y="0" font-family="Virgil, Segoe UI Emoji" font-size="16px" fill="#1e1e1e" text-anchor="middle" style="white-space: pre;" direction="ltr" dominant-baseline="text-before-edge">Date 4</text></g><g stroke-linecap="round" transform="translate(184.32094860076904 292.2187774658204) rotate(0 20.6171875 22)"><path d="M0 0 C14.58 1.13, 30.24 -0.75, 41.23 0 M0 0 C14.13 0.47, 28.91 -0.43, 41.23 0 M41.23 0 C41.45 14.29, 42.14 28.38, 41.23 44 M41.23 0 C41.07 15.69, 41.41 30.5, 41.23 44 M41.23 44 C25.51 43.22, 8.54 44.85, 0 44 M41.23 44 C31.9 43.46, 22.74 43.54, 0 44 M0 44 C0.08 30.65, 0.05 17.18, 0 0 M0 44 C-0.25 34.95, 0.14 25.83, 0 0" stroke="#1e1e1e" stroke-width="2" fill="none"></path></g><g transform="translate(194.72214031219482 304.2187774658204) rotate(0 10.215995788574219 10)"><text x="10.215995788574219" y="0" font-family="Virgil, Segoe UI Emoji" font-size="16px" fill="#1e1e1e" text-anchor="middle" style="white-space: pre;" direction="ltr" dominant-baseline="text-before-edge">2t</text></g><g stroke-linecap="round" transform="translate(241.6016736984253 292.2187774658204) rotate(0 20.6171875 22)"><path d="M0 0 C9.02 -1.1, 18.91 -1, 41.23 0 M0 0 C11.83 -0.64, 23.71 0.12, 41.23 0 M41.23 0 C42.03 9.89, 41.72 18.73, 41.23 44 M41.23 0 C41.08 11.05, 41.51 22.58, 41.23 44 M41.23 44 C26.73 44.62, 13.41 44.73, 0 44 M41.23 44 C32.68 43.6, 24.46 43.62, 0 44 M0 44 C-0.05 29.94, -0.88 16.67, 0 0 M0 44 C0.36 32.55, -0.29 20.58, 0 0" stroke="#1e1e1e" stroke-width="2" fill="none"></path></g><g transform="translate(250.7068754196167 304.2187774658204) rotate(0 11.511985778808594 10)"><text x="11.511985778808594" y="0" font-family="Virgil, Segoe UI Emoji" font-size="16px" fill="#1e1e1e" text-anchor="middle" style="white-space: pre;" direction="ltr" dominant-baseline="text-before-edge">msl</text></g><g stroke-linecap="round" transform="translate(298.88239879608153 292.2187774658204) rotate(0 20.6171875 22)"><path d="M0 0 C16.9 -0.61, 32.66 -0.47, 41.23 0 M0 0 C16.06 0.49, 31.52 0.23, 41.23 0 M41.23 0 C41.88 16.47, 40.92 30.64, 41.23 44 M41.23 0 C41.66 17.34, 41.37 33.92, 41.23 44 M41.23 44 C31.55 45.06, 22.45 43.83, 0 44 M41.23 44 C31.7 43.66, 22.22 43.88, 0 44 M0 44 C-0.87 31.31, -0.28 16.69, 0 0 M0 44 C-0.47 28.92, 0.11 13.39, 0 0" stroke="#1e1e1e" stroke-width="2" fill="none"></path></g><g transform="translate(307.2835905075073 304.2187774658204) rotate(0 12.215995788574219 10)"><text x="12.215995788574219" y="0" font-family="Virgil, Segoe UI Emoji" font-size="16px" fill="#1e1e1e" text-anchor="middle" style="white-space: pre;" direction="ltr" dominant-baseline="text-before-edge">10u</text></g><g stroke-linecap="round" transform="translate(356.16312389373775 292.2187774658204) rotate(0 20.6171875 22)"><path d="M0 0 C8.51 -0.49, 18.17 0.17, 41.23 0 M0 0 C8.13 -0.08, 17.51 0.26, 41.23 0 M41.23 0 C40.86 16.58, 42.18 34.53, 41.23 44 M41.23 0 C41.56 12.98, 41 25.33, 41.23 44 M41.23 44 C24.65 43.85, 9.3 43.89, 0 44 M41.23 44 C31.09 43.89, 20.78 43.88, 0 44 M0 44 C-0.1 30.42, 0.71 17.72, 0 0 M0 44 C0.4 27.15, -0.31 9.43, 0 0" stroke="#1e1e1e" stroke-width="2" fill="none"></path></g><g transform="translate(364.9243162155151 304.2187774658204) rotate(0 11.855995178222656 10)"><text x="11.855995178222656" y="0" font-family="Virgil, Segoe UI Emoji" font-size="16px" fill="#1e1e1e" text-anchor="middle" style="white-space: pre;" direction="ltr" dominant-baseline="text-before-edge">10v</text></g><g stroke-linecap="round" transform="translate(413.443848991394 292.2187774658204) rotate(0 20.6171875 22)"><path d="M0 0 C9.97 0.14, 17.26 0.25, 41.23 0 M0 0 C15.13 0.37, 30.16 0.22, 41.23 0 M41.23 0 C41.98 16.74, 41.06 34.34, 41.23 44 M41.23 0 C40.88 16.35, 41.69 33.29, 41.23 44 M41.23 44 C24.47 43.63, 8.56 43.99, 0 44 M41.23 44 C30.88 43.97, 20.46 43.55, 0 44 M0 44 C0.58 27.43, 0.97 8.86, 0 0 M0 44 C-0.56 27.11, 0.17 10.22, 0 0" stroke="#1e1e1e" stroke-width="2" fill="none"></path></g><g transform="translate(425.5970472335815 304.2187774658204) rotate(0 8.4639892578125 10)"><text x="8.4639892578125" y="0" font-family="Virgil, Segoe UI Emoji" font-size="16px" fill="#1e1e1e" text-anchor="middle" style="white-space: pre;" direction="ltr" dominant-baseline="text-before-edge">tp</text></g><g stroke-linecap="round" transform="translate(470.7245740890503 292.2187774658204) rotate(0 20.6171875 22)"><path d="M0 0 C8.76 0.12, 19.94 -0.97, 41.23 0 M0 0 C13.19 0.07, 25.86 -0.4, 41.23 0 M41.23 0 C41.35 11.03, 42.25 20.65, 41.23 44 M41.23 0 C41.44 13.4, 41.5 27.09, 41.23 44 M41.23 44 C29.72 43.99, 18.76 44.15, 0 44 M41.23 44 C29 43.55, 17.16 43.84, 0 44 M0 44 C0.79 30.6, 0.67 18.97, 0 0 M0 44 C0.48 27.48, 0.57 11.59, 0 0" stroke="#1e1e1e" stroke-width="2" fill="none"></path></g><g transform="translate(484.7657804489136 304.2187774658204) rotate(0 6.575981140136719 10)"><text x="6.575981140136719" y="0" font-family="Virgil, Segoe UI Emoji" font-size="16px" fill="#1e1e1e" text-anchor="middle" style="white-space: pre;" direction="ltr" dominant-baseline="text-before-edge">...</text></g><g stroke-linecap="round" transform="translate(576.0833387374878 292.2187774658204) rotate(0 49.453125 22)"><path d="M0 0 C30.97 -2.05, 59.71 1, 98.91 0 M0 0 C38.17 -0.95, 74.05 0.38, 98.91 0 M98.91 0 C100.53 13.76, 99.14 24.71, 98.91 44 M98.91 0 C100.15 7.93, 98.92 17.1, 98.91 44 M98.91 44 C71.22 44.47, 45.4 44.24, 0 44 M98.91 44 C70.66 42.83, 40.47 43.64, 0 44 M0 44 C1.17 28.83, 0.9 9.81, 0 0 M0 44 C0.5 32.22, -0.29 20.93, 0 0" stroke="#1e1e1e" stroke-width="2" fill="none"></path></g><g transform="translate(603.5924787521362 304.2187774658204) rotate(0 21.943984985351562 10)"><text x="21.943984985351562" y="0" font-family="Virgil, Segoe UI Emoji" font-size="16px" fill="#1e1e1e" text-anchor="middle" style="white-space: pre;" direction="ltr" dominant-baseline="text-before-edge">File 4</text></g><g stroke-linecap="round"><g transform="translate(137.30951134490965 314.81926547275054) rotate(0 15.629296874999994 -0.3466796875)"><path d="M-0.53 0.05 C4.72 -0.05, 26.18 -0.18, 31.57 -0.27 M0.2 -0.4 C5.4 -0.68, 26.05 -0.85, 31.29 -1.01" stroke="#1e1e1e" stroke-width="2" fill="none"></path></g><g transform="translate(137.30951134490965 314.81926547275054) rotate(0 15.629296874999994 -0.3466796875)"><path d="M16.71 4.61 C21.31 3.36, 26.4 1.9, 31.29 -1.01 M16.71 4.61 C21.48 3.02, 26.8 0.72, 31.29 -1.01" stroke="#1e1e1e" stroke-width="2" fill="none"></path></g><g transform="translate(137.30951134490965 314.81926547275054) rotate(0 15.629296874999994 -0.3466796875)"><path d="M16.51 -6.08 C21.2 -3.99, 26.36 -2.12, 31.29 -1.01 M16.51 -6.08 C21.39 -3.96, 26.79 -2.55, 31.29 -1.01" stroke="#1e1e1e" stroke-width="2" fill="none"></path></g></g><mask></mask><g stroke-linecap="round"><g transform="translate(525.5761365890503 314.22175511982437) rotate(0 22.854304321289106 0.14088198092412085)"><path d="M0.05 0.31 C7.68 0.53, 38.48 0.72, 46.14 0.79 M-0.59 -0.01 C6.98 0.11, 38.2 0.1, 45.92 0.09" stroke="#1e1e1e" stroke-width="2" fill="none"></path></g><g transform="translate(525.5761365890503 314.22175511982437) rotate(0 22.854304321289106 0.14088198092412085)"><path d="M24.46 7.92 C32.78 5.87, 40.88 2.74, 45.92 0.09 M24.46 7.92 C33.07 5.01, 40.78 2.45, 45.92 0.09" stroke="#1e1e1e" stroke-width="2" fill="none"></path></g><g transform="translate(525.5761365890503 314.22175511982437) rotate(0 22.854304321289106 0.14088198092412085)"><path d="M24.44 -7.71 C32.7 -4.14, 40.8 -1.64, 45.92 0.09 M24.44 -7.71 C33.02 -4.67, 40.74 -1.28, 45.92 0.09" stroke="#1e1e1e" stroke-width="2" fill="none"></path></g></g><mask></mask><g stroke-linecap="round" transform="translate(167.11257457733154 453.73699951171875) rotate(0 178.7920379638672 38.204429626464844)"><path d="M0 0 C91.63 0.29, 183.23 0.45, 357.58 0 M0 0 C85.03 -2.28, 168.77 -1.59, 357.58 0 M357.58 0 C356.96 19.73, 357.44 37.13, 357.58 76.41 M357.58 0 C357.67 29.87, 357.26 58.54, 357.58 76.41 M357.58 76.41 C270.39 78.01, 182.48 77.42, 0 76.41 M357.58 76.41 C227.25 75.73, 96.31 75.54, 0 76.41 M0 76.41 C-1.7 49.5, -0.07 25.79, 0 0 M0 76.41 C0.92 48.63, -0.25 19.82, 0 0" stroke="#1e1e1e" stroke-width="2" fill="none"></path></g><g stroke-linecap="round" transform="translate(10 469.5963897705078) rotate(0 65.16047668457031 22)"><path d="M0 0 C34.21 -0.13, 68.27 -1.23, 130.32 0 M0 0 C50.13 -1.39, 102.11 -1.77, 130.32 0 M130.32 0 C131.39 13.77, 130.09 29.7, 130.32 44 M130.32 0 C131.63 12.02, 131.39 23.79, 130.32 44 M130.32 44 C89.67 43.47, 47.01 45.45, 0 44 M130.32 44 C96.29 44.66, 61.03 44.93, 0 44 M0 44 C-1.6 28.61, -0.13 13.98, 0 0 M0 44 C1.16 31.81, 1 19.84, 0 0" stroke="#1e1e1e" stroke-width="2" fill="none"></path></g><g transform="translate(68.5844955444336 481.5963897705078) rotate(0 6.575981140136719 10)"><text x="6.575981140136719" y="0" font-family="Virgil, Segoe UI Emoji" font-size="16px" fill="#1e1e1e" text-anchor="middle" style="white-space: pre;" direction="ltr" dominant-baseline="text-before-edge">...</text></g><g stroke-linecap="round" transform="translate(184.32094860076904 469.7135772705078) rotate(0 20.6171875 22)"><path d="M0 0 C12.56 -0.62, 25.37 0.8, 41.23 0 M0 0 C16.37 -0.24, 32.52 0.09, 41.23 0 M41.23 0 C41.21 12.27, 41.11 23.8, 41.23 44 M41.23 0 C41.79 14.09, 41.54 28.94, 41.23 44 M41.23 44 C28.48 44.58, 15.26 43.37, 0 44 M41.23 44 C27.18 44.15, 12.77 43.86, 0 44 M0 44 C0.06 34.31, -0.16 22.47, 0 0 M0 44 C0.17 27.52, 0.24 11.48, 0 0" stroke="#1e1e1e" stroke-width="2" fill="none"></path></g><g transform="translate(194.72214031219482 481.7135772705078) rotate(0 10.215995788574219 10)"><text x="10.215995788574219" y="0" font-family="Virgil, Segoe UI Emoji" font-size="16px" fill="#1e1e1e" text-anchor="middle" style="white-space: pre;" direction="ltr" dominant-baseline="text-before-edge">2t</text></g><g stroke-linecap="round" transform="translate(241.6016736984253 469.7135772705078) rotate(0 20.6171875 22)"><path d="M0 0 C12.93 0.92, 24.98 -0.63, 41.23 0 M0 0 C11.75 0.16, 23.1 0.37, 41.23 0 M41.23 0 C40.97 13.38, 41.47 26.07, 41.23 44 M41.23 0 C41.49 12.74, 41.44 25.35, 41.23 44 M41.23 44 C29.94 43.57, 19.76 45.08, 0 44 M41.23 44 C29.04 43.92, 15.94 43.63, 0 44 M0 44 C-0.32 29.35, 0.68 16.85, 0 0 M0 44 C0.28 32.7, -0.22 21.95, 0 0" stroke="#1e1e1e" stroke-width="2" fill="none"></path></g><g transform="translate(250.7068754196167 481.7135772705078) rotate(0 11.511985778808594 10)"><text x="11.511985778808594" y="0" font-family="Virgil, Segoe UI Emoji" font-size="16px" fill="#1e1e1e" text-anchor="middle" style="white-space: pre;" direction="ltr" dominant-baseline="text-before-edge">msl</text></g><g stroke-linecap="round" transform="translate(298.88239879608153 469.7135772705078) rotate(0 20.6171875 22)"><path d="M0 0 C10.67 -0.93, 19.3 0.15, 41.23 0 M0 0 C9.9 0.24, 20.11 -0.09, 41.23 0 M41.23 0 C41.45 17.6, 41.03 34.01, 41.23 44 M41.23 0 C41.33 11.01, 41.11 21.53, 41.23 44 M41.23 44 C26.66 44.83, 11.13 44.52, 0 44 M41.23 44 C27.33 43.51, 14.15 43.88, 0 44 M0 44 C0.73 28.38, -0.44 11.72, 0 0 M0 44 C-0.26 34.16, 0.22 25.02, 0 0" stroke="#1e1e1e" stroke-width="2" fill="none"></path></g><g transform="translate(307.2835905075073 481.7135772705078) rotate(0 12.215995788574219 10)"><text x="12.215995788574219" y="0" font-family="Virgil, Segoe UI Emoji" font-size="16px" fill="#1e1e1e" text-anchor="middle" style="white-space: pre;" direction="ltr" dominant-baseline="text-before-edge">10u</text></g><g stroke-linecap="round" transform="translate(356.16312389373775 469.7135772705078) rotate(0 20.6171875 22)"><path d="M0 0 C15.44 0.47, 30.67 0.35, 41.23 0 M0 0 C12.7 -0.17, 25.94 -0.22, 41.23 0 M41.23 0 C41.14 17.52, 40.74 33.83, 41.23 44 M41.23 0 C41.09 15.01, 41.59 29.8, 41.23 44 M41.23 44 C31.2 44.83, 21.41 44.78, 0 44 M41.23 44 C30.14 43.76, 19.24 43.65, 0 44 M0 44 C-0.66 34.33, -0.95 24.08, 0 0 M0 44 C0.44 34.34, -0.26 23.59, 0 0" stroke="#1e1e1e" stroke-width="2" fill="none"></path></g><g transform="translate(364.9243162155151 481.7135772705078) rotate(0 11.855995178222656 10)"><text x="11.855995178222656" y="0" font-family="Virgil, Segoe UI Emoji" font-size="16px" fill="#1e1e1e" text-anchor="middle" style="white-space: pre;" direction="ltr" dominant-baseline="text-before-edge">10v</text></g><g stroke-linecap="round" transform="translate(413.443848991394 469.7135772705078) rotate(0 20.6171875 22)"><path d="M0 0 C8.66 0.13, 18.53 -0.45, 41.23 0 M0 0 C14.88 -0.09, 29.38 0.16, 41.23 0 M41.23 0 C40.64 17.56, 41.61 34.83, 41.23 44 M41.23 0 C41.49 15.39, 40.88 31.35, 41.23 44 M41.23 44 C25.28 44.71, 8.45 43.51, 0 44 M41.23 44 C32.79 43.8, 23.28 44.3, 0 44 M0 44 C-0.69 27.8, -0.62 9.74, 0 0 M0 44 C-0.47 31.97, -0.25 20.95, 0 0" stroke="#1e1e1e" stroke-width="2" fill="none"></path></g><g transform="translate(425.5970472335815 481.7135772705078) rotate(0 8.4639892578125 10)"><text x="8.4639892578125" y="0" font-family="Virgil, Segoe UI Emoji" font-size="16px" fill="#1e1e1e" text-anchor="middle" style="white-space: pre;" direction="ltr" dominant-baseline="text-before-edge">tp</text></g><g stroke-linecap="round" transform="translate(470.7245740890503 469.7135772705078) rotate(0 20.6171875 22)"><path d="M0 0 C13.77 -0.43, 27.85 -0.19, 41.23 0 M0 0 C12.22 0.18, 24.1 -0.03, 41.23 0 M41.23 0 C41.52 16.4, 41.65 32.25, 41.23 44 M41.23 0 C41.1 13.75, 41.85 27.03, 41.23 44 M41.23 44 C25.94 43.49, 10.36 44.31, 0 44 M41.23 44 C29.07 44.26, 17.98 43.67, 0 44 M0 44 C-0.55 27.5, -0.19 12.09, 0 0 M0 44 C0.06 28.07, 0.62 11.77, 0 0" stroke="#1e1e1e" stroke-width="2" fill="none"></path></g><g transform="translate(484.7657804489136 481.7135772705078) rotate(0 6.575981140136719 10)"><text x="6.575981140136719" y="0" font-family="Virgil, Segoe UI Emoji" font-size="16px" fill="#1e1e1e" text-anchor="middle" style="white-space: pre;" direction="ltr" dominant-baseline="text-before-edge">...</text></g><g stroke-linecap="round" transform="translate(576.0833387374878 469.7135772705078) rotate(0 49.453125 22)"><path d="M0 0 C32.64 0.09, 62.95 1.95, 98.91 0 M0 0 C28.31 -0.41, 55.42 -0.82, 98.91 0 M98.91 0 C100.15 13.41, 99.22 29.48, 98.91 44 M98.91 0 C99.6 11.83, 99.3 23.91, 98.91 44 M98.91 44 C61.76 43.75, 27.81 44.88, 0 44 M98.91 44 C73.53 44.13, 47.12 43.84, 0 44 M0 44 C-0.41 28.64, 1.62 8.79, 0 0 M0 44 C1.04 34.47, 0.16 25.15, 0 0" stroke="#1e1e1e" stroke-width="2" fill="none"></path></g><g transform="translate(618.9604825973511 481.7135772705078) rotate(0 6.575981140136719 10)"><text x="6.575981140136719" y="0" font-family="Virgil, Segoe UI Emoji" font-size="16px" fill="#1e1e1e" text-anchor="middle" style="white-space: pre;" direction="ltr" dominant-baseline="text-before-edge">...</text></g><g stroke-linecap="round"><g transform="translate(137.30951134490965 492.314065277438) rotate(0 15.629296874999994 -0.3466796875)"><path d="M-0.08 -0.07 C5.24 -0.26, 26.39 -0.74, 31.69 -0.82 M-0.78 -0.59 C4.52 -0.71, 26.08 -0.31, 31.48 -0.19" stroke="#1e1e1e" stroke-width="2" fill="none"></path></g><g transform="translate(137.30951134490965 492.314065277438) rotate(0 15.629296874999994 -0.3466796875)"><path d="M16.69 4.87 C20.43 4.17, 24.22 2.88, 31.48 -0.19 M16.69 4.87 C21.77 3.01, 26.41 1.74, 31.48 -0.19" stroke="#1e1e1e" stroke-width="2" fill="none"></path></g><g transform="translate(137.30951134490965 492.314065277438) rotate(0 15.629296874999994 -0.3466796875)"><path d="M16.9 -5.82 C20.61 -3.73, 24.35 -2.23, 31.48 -0.19 M16.9 -5.82 C21.96 -4.19, 26.53 -1.97, 31.48 -0.19" stroke="#1e1e1e" stroke-width="2" fill="none"></path></g></g><mask></mask><g stroke-linecap="round"><g transform="translate(525.5761365890503 491.7165549245119) rotate(0 22.854304321289106 0.14088198092412085)"><path d="M-0.07 0.43 C7.48 0.57, 37.93 0.67, 45.58 0.73 M-0.78 0.18 C6.67 0.17, 37.36 0.03, 45.08 0" stroke="#1e1e1e" stroke-width="2" fill="none"></path></g><g transform="translate(525.5761365890503 491.7165549245119) rotate(0 22.854304321289106 0.14088198092412085)"><path d="M23.64 7.91 C31.96 4.91, 39.53 2.63, 45.08 0 M23.64 7.91 C31.83 4.81, 40.77 1.65, 45.08 0" stroke="#1e1e1e" stroke-width="2" fill="none"></path></g><g transform="translate(525.5761365890503 491.7165549245119) rotate(0 22.854304321289106 0.14088198092412085)"><path d="M23.57 -7.73 C31.91 -5.23, 39.5 -2.02, 45.08 0 M23.57 -7.73 C31.77 -4.65, 40.74 -1.65, 45.08 0" stroke="#1e1e1e" stroke-width="2" fill="none"></path></g></g><mask></mask></svg>
