<svg version="1.1" xmlns="http://www.w3.org/2000/svg" viewBox="0 0 712.921875 439" width="712.921875" height="439">
  <!-- svg-source:excalidraw -->

  <defs>
    <style class="style-fonts">
      @font-face {
        font-family: "Virgil";
        src: url("https://excalidraw.com/Virgil.woff2");
      }
      @font-face {
        font-family: "Cascadia";
        src: url("https://excalidraw.com/Cascadia.woff2");
      }
      @font-face {
        font-family: "Assistant";
        src: url("https://excalidraw.com/Assistant-Regular.woff2");
      }
    </style>

  </defs>
  <rect x="0" y="0" width="712.921875" height="439" fill="#ffffff"></rect><g stroke-linecap="round" transform="translate(563.390625 10) rotate(0 69.765625 209.5)"><path d="M0 0 C51.76 2.46, 100.45 2.12, 139.53 0 M0 0 C29.8 -0.66, 58.79 -0.51, 139.53 0 M139.53 0 C138.34 151.88, 138.24 305.39, 139.53 419 M139.53 0 C141.56 113.49, 140.72 227.18, 139.53 419 M139.53 419 C93.72 419.87, 48.23 417.62, 0 419 M139.53 419 C100.27 418.9, 61.92 418.46, 0 419 M0 419 C1.44 333.4, 1.52 246.86, 0 0 M0 419 C0.1 276.62, 0.07 135.52, 0 0" stroke="#1e1e1e" stroke-width="2" fill="none"></path></g><g stroke-linecap="round" transform="translate(187.4375 59.5) rotate(0 73.515625 22)"><path d="M0 0 C55.9 -1.88, 115.46 -0.84, 147.03 0 M0 0 C36.78 0.39, 71.61 -0.14, 147.03 0 M147.03 0 C146.1 10.44, 146.81 19.11, 147.03 44 M147.03 0 C146.86 11.3, 146.62 21.77, 147.03 44 M147.03 44 C96.05 44.03, 45.56 42.12, 0 44 M147.03 44 C99.61 43.3, 53.86 44.33, 0 44 M0 44 C0.41 26.65, 0.35 9.18, 0 0 M0 44 C0.98 34.06, -0.26 25.79, 0 0" stroke="#1e1e1e" stroke-width="2" fill="none"></path></g><g stroke-linecap="round" transform="translate(187.4375 153.5) rotate(0 73.515625 22)"><path d="M0 0 C55.29 0.83, 109.15 -0.56, 147.03 0 M0 0 C37.7 -0.44, 75.72 -0.54, 147.03 0 M147.03 0 C147.04 12.61, 145.93 20.86, 147.03 44 M147.03 0 C147.13 10.28, 147.57 20.71, 147.03 44 M147.03 44 C112.64 43.89, 79.34 44.84, 0 44 M147.03 44 C106.86 44.32, 67.97 44.4, 0 44 M0 44 C0.54 26.2, -1.89 8.87, 0 0 M0 44 C-0.77 28.44, -0.24 12.47, 0 0" stroke="#1e1e1e" stroke-width="2" fill="none"></path></g><g stroke-linecap="round" transform="translate(187.4375 247.5) rotate(0 73.515625 22)"><path d="M0 0 C37.32 -1.32, 76.02 1.11, 147.03 0 M0 0 C40.38 0.25, 82.28 0.77, 147.03 0 M147.03 0 C146.08 14.66, 145.88 33.51, 147.03 44 M147.03 0 C147.47 13.8, 146.34 28.39, 147.03 44 M147.03 44 C95.6 43.43, 42.97 41.49, 0 44 M147.03 44 C108.05 45.91, 68.2 45.48, 0 44 M0 44 C-1.88 30.62, 1.2 20.22, 0 0 M0 44 C0.31 33.96, 0 22.74, 0 0" stroke="#1e1e1e" stroke-width="2" fill="none"></path></g><g stroke-linecap="round" transform="translate(186.015625 341.5) rotate(0 74.9375 22)"><path d="M0 0 C46.11 2.15, 93.4 -0.45, 149.88 0 M0 0 C33.75 0.93, 69.09 1.28, 149.88 0 M149.88 0 C148.48 16.42, 150.16 31.89, 149.88 44 M149.88 0 C149.38 11.54, 150.59 23.32, 149.88 44 M149.88 44 C110.87 42.19, 72.41 43.67, 0 44 M149.88 44 C94.7 45.62, 37.58 45.59, 0 44 M0 44 C1.74 33.7, -0.67 19.27, 0 0 M0 44 C-0.24 28.57, -0.29 12.8, 0 0" stroke="#1e1e1e" stroke-width="2" fill="none"></path></g><g stroke-linecap="round" transform="translate(11.4296875 117.5) rotate(0 43.828125 22)"><path d="M0 0 C20.96 -1.87, 41.24 -2.51, 87.66 0 M0 0 C19.94 0.32, 38.99 -0.24, 87.66 0 M87.66 0 C87.9 9.11, 86.74 19.1, 87.66 44 M87.66 0 C87.87 10.81, 86.92 22.17, 87.66 44 M87.66 44 C60.47 42.79, 35.92 44.97, 0 44 M87.66 44 C54.06 44.7, 20.41 43.48, 0 44 M0 44 C-1.35 31.46, 0.95 20.79, 0 0 M0 44 C-0.15 27.76, 0.32 9.3, 0 0" stroke="#1e1e1e" stroke-width="2" fill="none"></path></g><g stroke-linecap="round" transform="translate(11.4296875 211.5) rotate(0 43.828125 22)"><path d="M0 0 C30.55 -1.37, 62.36 -0.27, 87.66 0 M0 0 C24.42 -0.55, 46.67 -0.65, 87.66 0 M87.66 0 C87.11 15.11, 86.77 27.1, 87.66 44 M87.66 0 C87.45 12.4, 87.92 24.2, 87.66 44 M87.66 44 C71.03 45.62, 53.08 45.66, 0 44 M87.66 44 C57.68 43.45, 27.94 44.99, 0 44 M0 44 C1.48 27.41, 1.93 9.95, 0 0 M0 44 C0.35 27.68, -0.74 12.47, 0 0" stroke="#1e1e1e" stroke-width="2" fill="none"></path></g><g stroke-linecap="round" transform="translate(10 305.5) rotate(0 45.2578125 22)"><path d="M0 0 C19.64 0.04, 41.95 2.39, 90.52 0 M0 0 C26.82 -0.15, 55.74 0.69, 90.52 0 M90.52 0 C89.37 11.81, 89.94 27.42, 90.52 44 M90.52 0 C90.36 12.09, 89.39 24.45, 90.52 44 M90.52 44 C66.75 46.64, 40.49 44.59, 0 44 M90.52 44 C59.8 43.9, 30.57 42.7, 0 44 M0 44 C1.42 32.22, 0.77 20.69, 0 0 M0 44 C-0.95 27.16, -0.57 12.28, 0 0" stroke="#1e1e1e" stroke-width="2" fill="none"></path></g><g stroke-linecap="round" transform="translate(452.703125 72.5) rotate(0 45.421875 22)"><path d="M0 0 C17.87 1.89, 37.01 1.63, 90.84 0 M0 0 C23.05 0.79, 45.62 0.21, 90.84 0 M90.84 0 C90.19 16.17, 90.25 29.38, 90.84 44 M90.84 0 C89.93 13.62, 90.67 28.57, 90.84 44 M90.84 44 C56.25 44.61, 20.83 44.27, 0 44 M90.84 44 C72.23 44.09, 51.55 45.24, 0 44 M0 44 C0.67 29.77, 1.04 16.95, 0 0 M0 44 C-0.09 35.3, 0.36 24.39, 0 0" stroke="#1e1e1e" stroke-width="2" fill="none"></path></g><g stroke-linecap="round" transform="translate(455.703125 153.5) rotate(0 45.421875 22)"><path d="M0 0 C23.59 0.57, 45.93 -2.54, 90.84 0 M0 0 C21.9 -0.56, 44.24 -0.73, 90.84 0 M90.84 0 C90.37 9.31, 91.07 20.43, 90.84 44 M90.84 0 C90.24 12.71, 91.33 24.75, 90.84 44 M90.84 44 C55.98 43.34, 17.96 43.23, 0 44 M90.84 44 C57.02 44.15, 24.13 44.37, 0 44 M0 44 C1.18 32.08, -1.88 17.5, 0 0 M0 44 C0.19 32.69, 0.35 22.71, 0 0" stroke="#1e1e1e" stroke-width="2" fill="none"></path></g><g stroke-linecap="round" transform="translate(452.390625 305.5) rotate(0 47.734375 22)"><path d="M0 0 C34.86 -2.45, 70.5 -0.12, 95.47 0 M0 0 C31.47 -0.19, 61.38 0.1, 95.47 0 M95.47 0 C95.71 15.56, 94.82 29.11, 95.47 44 M95.47 0 C96.28 12.75, 96.3 24.25, 95.47 44 M95.47 44 C66.16 43.06, 41.64 45.39, 0 44 M95.47 44 C71.96 45.45, 48.02 45.12, 0 44 M0 44 C-1.96 30.14, -1.38 18.71, 0 0 M0 44 C0.15 27.33, -0.8 10.16, 0 0" stroke="#1e1e1e" stroke-width="2" fill="none"></path></g><g stroke-linecap="round" transform="translate(599.28125 53.5) rotate(0 41.109375 22)"><path d="M0 0 C28.63 1.24, 60.11 0.76, 82.22 0 M0 0 C21.28 0.19, 44.45 0.22, 82.22 0 M82.22 0 C81.73 9.42, 81.71 22.19, 82.22 44 M82.22 0 C83.53 16.86, 82.5 33.29, 82.22 44 M82.22 44 C61.23 45.38, 36.47 42.92, 0 44 M82.22 44 C52.23 45.22, 22.36 45.4, 0 44 M0 44 C-0.7 28.8, 2.13 15.41, 0 0 M0 44 C-0.88 33.13, -0.8 21.63, 0 0" stroke="#1e1e1e" stroke-width="2" fill="none"></path></g><g stroke-linecap="round" transform="translate(600.28125 124.5) rotate(0 41.109375 22)"><path d="M0 0 C17.53 -0.2, 33.4 0.68, 82.22 0 M0 0 C21.08 -0.01, 40.68 0.34, 82.22 0 M82.22 0 C81.52 12.97, 83.58 28.5, 82.22 44 M82.22 0 C82.51 17.16, 82.34 32.75, 82.22 44 M82.22 44 C59.25 43.87, 39.62 44.94, 0 44 M82.22 44 C50.33 45.14, 19.15 43.61, 0 44 M0 44 C2 34.46, -0.67 25.27, 0 0 M0 44 C-0.38 29, 0.34 13.13, 0 0" stroke="#1e1e1e" stroke-width="2" fill="none"></path></g><g stroke-linecap="round" transform="translate(597.859375 355.5) rotate(0 42.53125 22)"><path d="M0 0 C26.87 0.88, 54.05 -1.37, 85.06 0 M0 0 C23.23 0.32, 47.37 -0.12, 85.06 0 M85.06 0 C86.42 10.88, 86.58 20.01, 85.06 44 M85.06 0 C84.73 14.04, 84.68 30.49, 85.06 44 M85.06 44 C53.75 43.92, 21.63 43.3, 0 44 M85.06 44 C55.34 43.78, 24.3 44.07, 0 44 M0 44 C-1.3 33.11, 0.45 20.01, 0 0 M0 44 C0.3 28.53, 0.19 15.13, 0 0" stroke="#1e1e1e" stroke-width="2" fill="none"></path></g><g stroke-linecap="round"><g transform="translate(260.953625 104) rotate(0 0 24.5)"><path d="M0.53 -0.6 C0.39 7.59, -0.84 40.51, -0.82 48.74 M-0.66 1.7 C-0.41 10.11, 1.31 42.09, 1.45 50.14" stroke="#1e1e1e" stroke-width="2" fill="none"></path></g><g transform="translate(260.953625 104) rotate(0 0 24.5)"><path d="M-7.79 27.45 C-6.09 32.84, -2.76 42.05, 1.45 50.14 M-7.79 27.45 C-5.26 33.53, -3.63 39.91, 1.45 50.14" stroke="#1e1e1e" stroke-width="2" fill="none"></path></g><g transform="translate(260.953625 104) rotate(0 0 24.5)"><path d="M8.95 26.82 C5.63 32.47, 3.95 41.87, 1.45 50.14 M8.95 26.82 C6.78 33.1, 3.7 39.65, 1.45 50.14" stroke="#1e1e1e" stroke-width="2" fill="none"></path></g></g><mask></mask><g stroke-linecap="round"><g transform="translate(260.953625 198) rotate(0 0 24.5)"><path d="M-0.82 -0.26 C-0.81 7.97, 0.57 40.53, 0.62 48.77 M0.94 -1.44 C0.81 7.02, 0.42 41.52, 0 50.19" stroke="#1e1e1e" stroke-width="2" fill="none"></path></g><g transform="translate(260.953625 198) rotate(0 0 24.5)"><path d="M-7.75 26.95 C-5.64 36.03, -2.91 42.12, 0 50.19 M-7.75 26.95 C-6.22 34.03, -3.03 42.41, 0 50.19" stroke="#1e1e1e" stroke-width="2" fill="none"></path></g><g transform="translate(260.953625 198) rotate(0 0 24.5)"><path d="M9 27.41 C5.36 36.22, 2.32 42.14, 0 50.19 M9 27.41 C5.23 34.3, 3.13 42.53, 0 50.19" stroke="#1e1e1e" stroke-width="2" fill="none"></path></g></g><mask></mask><g stroke-linecap="round"><g transform="translate(260.953625 292) rotate(0 0 24.5)"><path d="M0.62 -0.23 C0.67 8.02, -0.43 41.05, -0.52 49.19 M-0.51 -1.39 C-0.59 6.49, -1.71 38.64, -1.74 47.17" stroke="#1e1e1e" stroke-width="2" fill="none"></path></g><g transform="translate(260.953625 292) rotate(0 0 24.5)"><path d="M-9.64 23.98 C-8.24 28.44, -5.72 34.74, -1.74 47.17 M-9.64 23.98 C-7.91 31.05, -4.67 37.44, -1.74 47.17" stroke="#1e1e1e" stroke-width="2" fill="none"></path></g><g transform="translate(260.953625 292) rotate(0 0 24.5)"><path d="M7.11 24.33 C4.64 28.79, 3.29 35.02, -1.74 47.17 M7.11 24.33 C4.3 31.26, 2.98 37.55, -1.74 47.17" stroke="#1e1e1e" stroke-width="2" fill="none"></path></g></g><mask></mask><g stroke-linecap="round"><g transform="translate(100.0859375 138.27970821817144) rotate(0 24.96484375 6.253374725984713)"><path d="M-0.24 0.09 C8.04 2.16, 41.67 10.31, 49.95 12.35 M0.64 -0.34 C8.82 1.82, 41.22 10.77, 49.53 12.97" stroke="#1e1e1e" stroke-width="2" fill="none"></path></g><g transform="translate(100.0859375 138.27970821817144) rotate(0 24.96484375 6.253374725984713)"><path d="M24.62 15.08 C33.55 14.43, 41.87 12.72, 49.53 12.97 M24.62 15.08 C31.82 14.82, 38.59 14.04, 49.53 12.97" stroke="#1e1e1e" stroke-width="2" fill="none"></path></g><g transform="translate(100.0859375 138.27970821817144) rotate(0 24.96484375 6.253374725984713)"><path d="M29.09 -1.43 C36.43 3.72, 43.18 7.82, 49.53 12.97 M29.09 -1.43 C35.07 2.81, 40.62 6.5, 49.53 12.97" stroke="#1e1e1e" stroke-width="2" fill="none"></path></g></g><mask></mask><g stroke-linecap="round"><g transform="translate(100.0859375 231.59829017783852) rotate(0 24.96484375 -1.7068756574324766)"><path d="M0.02 -0.15 C8.3 -0.76, 41.12 -3.1, 49.42 -3.57 M-0.63 -0.71 C7.82 -1.25, 42.04 -2.43, 50.39 -2.95" stroke="#1e1e1e" stroke-width="2" fill="none"></path></g><g transform="translate(100.0859375 231.59829017783852) rotate(0 24.96484375 -1.7068756574324766)"><path d="M27.32 6.69 C32.95 3.28, 38.86 1.54, 50.39 -2.95 M27.32 6.69 C36.37 3.18, 44.49 -0.45, 50.39 -2.95" stroke="#1e1e1e" stroke-width="2" fill="none"></path></g><g transform="translate(100.0859375 231.59829017783852) rotate(0 24.96484375 -1.7068756574324766)"><path d="M26.52 -10.39 C32.37 -9.42, 38.48 -6.78, 50.39 -2.95 M26.52 -10.39 C35.94 -7.51, 44.36 -4.74, 50.39 -2.95" stroke="#1e1e1e" stroke-width="2" fill="none"></path></g></g><mask></mask><g stroke-linecap="round"><g transform="translate(101.515625 326.1901776778684) rotate(0 24.25 -9.667790990852609)"><path d="M-1.12 -0.35 C6.92 -3.36, 39.82 -15.44, 48.27 -18.44 M0.49 -1.57 C8.35 -4.89, 39.05 -17, 47.2 -20.1" stroke="#1e1e1e" stroke-width="2" fill="none"></path></g><g transform="translate(101.515625 326.1901776778684) rotate(0 24.25 -9.667790990852609)"><path d="M28.4 -3.62 C33.58 -8.83, 41.35 -11.66, 47.2 -20.1 M28.4 -3.62 C35.32 -9.63, 42.33 -17.14, 47.2 -20.1" stroke="#1e1e1e" stroke-width="2" fill="none"></path></g><g transform="translate(101.515625 326.1901776778684) rotate(0 24.25 -9.667790990852609)"><path d="M22.2 -19.55 C29.22 -19.87, 38.87 -17.87, 47.2 -20.1 M22.2 -19.55 C31.64 -19.5, 41.01 -20.93, 47.2 -20.1" stroke="#1e1e1e" stroke-width="2" fill="none"></path></g></g><mask></mask><g stroke-linecap="round"><g transform="translate(378.3910000000001 153.5012697239838) rotate(0 36.6566991386282 -18.475411196130324)"><path d="M-0.23 0.89 C4.3 -1.22, 13.63 -6.79, 26.07 -13.02 C38.51 -19.25, 66.56 -32.57, 74.41 -36.49 M-1.81 0.31 C2.75 -2.09, 13.01 -8.14, 25.69 -14.62 C38.36 -21.11, 66.28 -35.16, 74.23 -38.58" stroke="#1e1e1e" stroke-width="2" fill="none"></path></g><g transform="translate(378.3910000000001 153.5012697239838) rotate(0 36.6566991386282 -18.475411196130324)"><path d="M56.62 -20.84 C61.79 -22.68, 65.58 -26.3, 74.23 -38.58 M56.62 -20.84 C62.32 -27.77, 68.23 -32.24, 74.23 -38.58" stroke="#1e1e1e" stroke-width="2" fill="none"></path></g><g transform="translate(378.3910000000001 153.5012697239838) rotate(0 36.6566991386282 -18.475411196130324)"><path d="M49.33 -36.31 C55.96 -34.94, 61.26 -35.37, 74.23 -38.58 M49.33 -36.31 C57.48 -38.03, 65.86 -37.26, 74.23 -38.58" stroke="#1e1e1e" stroke-width="2" fill="none"></path></g></g><mask></mask><g stroke-linecap="round"><g transform="translate(378.89099999999996 229.90303480108253) rotate(0 37.738706896551776 -26.201517400541263)"><path d="M1.07 0.98 C5.54 -2.99, 14.22 -14.11, 26.6 -22.94 C38.98 -31.76, 67.26 -46.89, 75.35 -51.97 M0.18 0.45 C4.61 -3.96, 13.84 -15.73, 26.23 -24.82 C38.62 -33.91, 66.35 -49.42, 74.51 -54.09" stroke="#1e1e1e" stroke-width="2" fill="none"></path></g><g transform="translate(378.89099999999996 229.90303480108253) rotate(0 37.738706896551776 -26.201517400541263)"><path d="M58.34 -35.02 C64.38 -38.69, 68.05 -46.09, 74.51 -54.09 M58.34 -35.02 C63.49 -40.61, 70.08 -48.21, 74.51 -54.09" stroke="#1e1e1e" stroke-width="2" fill="none"></path></g><g transform="translate(378.89099999999996 229.90303480108253) rotate(0 37.738706896551776 -26.201517400541263)"><path d="M49.87 -49.88 C58.39 -49.45, 64.44 -52.68, 74.51 -54.09 M49.87 -49.88 C57.82 -50.4, 67.25 -53.02, 74.51 -54.09" stroke="#1e1e1e" stroke-width="2" fill="none"></path></g></g><mask></mask><g stroke-linecap="round"><g transform="translate(378.3910000000001 307.6755138307558) rotate(0 36.49981249999996 9.912243084622105)"><path d="M1.1 0.46 C5.07 3.68, 12.94 17.2, 24.87 20.25 C36.8 23.31, 64.71 18.73, 72.66 18.79 M0.22 -0.34 C3.92 2.42, 11.93 15.04, 23.85 18.36 C35.77 21.67, 63.59 19.54, 71.72 19.57" stroke="#1e1e1e" stroke-width="2" fill="none"></path></g><g transform="translate(378.3910000000001 307.6755138307558) rotate(0 36.49981249999996 9.912243084622105)"><path d="M49.42 28.46 C58.81 24.57, 67.42 20.77, 71.72 19.57 M49.42 28.46 C55.05 25.88, 58.59 25.13, 71.72 19.57" stroke="#1e1e1e" stroke-width="2" fill="none"></path></g><g transform="translate(378.3910000000001 307.6755138307558) rotate(0 36.49981249999996 9.912243084622105)"><path d="M48.93 12.05 C58.64 14.55, 67.45 17.13, 71.72 19.57 M48.93 12.05 C54.61 12.98, 58.26 15.74, 71.72 19.57" stroke="#1e1e1e" stroke-width="2" fill="none"></path></g></g><mask></mask><g stroke-linecap="round"><g transform="translate(544.597897584934 91.66819597566962) rotate(0 27.091551207532973 -18.58409798783481)"><path d="M-0.13 0.43 C4.34 -6.02, 18.94 -33.29, 27.92 -38.2 C36.91 -43.11, 49.24 -30.32, 53.78 -29.03 M-1.66 -0.39 C2.53 -6.76, 17.72 -32.11, 26.8 -37.2 C35.88 -42.3, 47.95 -32.19, 52.81 -30.94" stroke="#1e1e1e" stroke-width="2" fill="none"></path></g><g transform="translate(544.597897584934 91.66819597566962) rotate(0 27.091551207532973 -18.58409798783481)"><path d="M39.4 -32.2 C45.14 -32.07, 48.75 -31.65, 52.81 -30.94 M39.4 -32.2 C44.07 -31.25, 49.36 -30.63, 52.81 -30.94" stroke="#1e1e1e" stroke-width="2" fill="none"></path></g><g transform="translate(544.597897584934 91.66819597566962) rotate(0 27.091551207532973 -18.58409798783481)"><path d="M43.34 -40.53 C47.57 -37.14, 49.64 -33.46, 52.81 -30.94 M43.34 -40.53 C46.63 -36.53, 50.47 -32.85, 52.81 -30.94" stroke="#1e1e1e" stroke-width="2" fill="none"></path></g></g><mask></mask><g stroke-linecap="round"><g transform="translate(547.2662965245793 176.5) rotate(0 25.21074314396037 -15)"><path d="M-0.48 0.75 C3.14 -2.14, 14.3 -12.96, 22.75 -17.98 C31.2 -23, 45.64 -27.51, 50.21 -29.37 M1.46 0.1 C4.86 -3.05, 13.9 -14.32, 21.88 -19.57 C29.86 -24.81, 44.6 -29.44, 49.33 -31.39" stroke="#1e1e1e" stroke-width="2" fill="none"></path></g><g transform="translate(547.2662965245793 176.5) rotate(0 25.21074314396037 -15)"><path d="M37.94 -21.69 C43.29 -25.16, 47.98 -29.34, 49.33 -31.39 M37.94 -21.69 C42.16 -25.8, 45.36 -29, 49.33 -31.39" stroke="#1e1e1e" stroke-width="2" fill="none"></path></g><g transform="translate(547.2662965245793 176.5) rotate(0 25.21074314396037 -15)"><path d="M34.37 -31.28 C41.03 -31.07, 47.1 -31.57, 49.33 -31.39 M34.37 -31.28 C39.82 -32.04, 44.28 -31.86, 49.33 -31.39" stroke="#1e1e1e" stroke-width="2" fill="none"></path></g></g><mask></mask><g stroke-linecap="round"><g transform="translate(523.484 349) rotate(0 36.9375 24.25)"><path d="M0.29 -0.99 C8.4 6.85, 36.2 40.59, 48.37 47.86 C60.54 55.13, 69.08 43.79, 73.33 42.66 M-1.01 1.11 C7.49 9.02, 38.34 42.44, 50.55 49.06 C62.77 55.69, 68.35 42.07, 72.27 40.87" stroke="#1e1e1e" stroke-width="2" fill="none"></path></g><g transform="translate(523.484 349) rotate(0 36.9375 24.25)"><path d="M66.06 51.98 C66.66 47.82, 68.75 45.23, 72.27 40.87 M66.06 51.98 C68.57 47.96, 70.37 43.59, 72.27 40.87" stroke="#1e1e1e" stroke-width="2" fill="none"></path></g><g transform="translate(523.484 349) rotate(0 36.9375 24.25)"><path d="M60.37 45.39 C62.59 43.04, 66.25 42.28, 72.27 40.87 M60.37 45.39 C65.09 43.96, 69.1 42.15, 72.27 40.87" stroke="#1e1e1e" stroke-width="2" fill="none"></path></g></g><mask></mask><g transform="translate(589.8162460327148 15) rotate(0 43.340003967285156 12.5)"><text x="43.340003967285156" y="17.52" font-family="Virgil, Segoe UI Emoji" font-size="20px" fill="#1e1e1e" text-anchor="middle" style="white-space: pre;" direction="ltr" dominant-baseline="alphabetic">Dataset</text></g><g stroke-linecap="round" transform="translate(151.015625 14.5) rotate(0 109.9375 198.5)"><path d="M0 0 C54.63 -0.46, 110.91 -2.43, 219.88 0 M0 0 C67.37 0.69, 136.28 0.87, 219.88 0 M219.88 0 C217.31 92.78, 217.91 187.37, 219.88 397 M219.88 0 C220.76 121.39, 221.43 243.59, 219.88 397 M219.88 397 C153.1 396.64, 87.69 398.74, 0 397 M219.88 397 C158.09 397.06, 95.43 397.06, 0 397 M0 397 C-0.75 286.64, -1.24 174.06, 0 0 M0 397 C0.45 264.12, 1.11 130.16, 0 0" stroke="#1e1e1e" stroke-width="2" fill="none"></path></g><g transform="translate(231.09312438964844 19.5) rotate(0 29.860000610351562 12.5)"><text x="29.860000610351562" y="17.52" font-family="Virgil, Segoe UI Emoji" font-size="20px" fill="#1e1e1e" text-anchor="middle" style="white-space: pre;" direction="ltr" dominant-baseline="alphabetic">Recipe</text></g><g transform="translate(206.56312561035156 69) rotate(0 54.38999938964844 12.5)"><text x="54.38999938964844" y="17.52" font-family="Virgil, Segoe UI Emoji" font-size="20px" fill="#1e1e1e" text-anchor="middle" style="white-space: pre;" direction="ltr" dominant-baseline="alphabetic">Operation 1</text></g><g transform="translate(202.15312576293945 163) rotate(0 58.79999923706055 12.5)"><text x="58.79999923706055" y="17.52" font-family="Virgil, Segoe UI Emoji" font-size="20px" fill="#1e1e1e" text-anchor="middle" style="white-space: pre;" direction="ltr" dominant-baseline="alphabetic">Operation 2</text></g><g transform="translate(202.4631233215332 257) rotate(0 58.4900016784668 12.5)"><text x="58.4900016784668" y="17.52" font-family="Virgil, Segoe UI Emoji" font-size="20px" fill="#1e1e1e" text-anchor="middle" style="white-space: pre;" direction="ltr" dominant-baseline="alphabetic">Operation 3</text></g><g transform="translate(202.83312606811523 351) rotate(0 58.119998931884766 12.5)"><text x="58.119998931884766" y="17.52" font-family="Virgil, Segoe UI Emoji" font-size="20px" fill="#1e1e1e" text-anchor="middle" style="white-space: pre;" direction="ltr" dominant-baseline="alphabetic">Operation N</text></g><g transform="translate(21.957813262939453 127) rotate(0 33.29999923706055 12.5)"><text x="33.29999923706055" y="17.52" font-family="Virgil, Segoe UI Emoji" font-size="20px" fill="#1e1e1e" text-anchor="middle" style="white-space: pre;" direction="ltr" dominant-baseline="alphabetic">Date 1</text></g><g transform="translate(17.547813415527344 221) rotate(0 37.709999084472656 12.5)"><text x="37.709999084472656" y="17.52" font-family="Virgil, Segoe UI Emoji" font-size="20px" fill="#1e1e1e" text-anchor="middle" style="white-space: pre;" direction="ltr" dominant-baseline="alphabetic">Date 2</text></g><g transform="translate(18.227813720703125 315) rotate(0 37.029998779296875 12.5)"><text x="37.029998779296875" y="17.52" font-family="Virgil, Segoe UI Emoji" font-size="20px" fill="#1e1e1e" text-anchor="middle" style="white-space: pre;" direction="ltr" dominant-baseline="alphabetic">Date N</text></g><g transform="translate(468.6949996948242 82) rotate(0 29.43000030517578 12.5)"><text x="29.43000030517578" y="17.52" font-family="Virgil, Segoe UI Emoji" font-size="20px" fill="#1e1e1e" text-anchor="middle" style="white-space: pre;" direction="ltr" dominant-baseline="alphabetic">Field 1</text></g><g transform="translate(467.2849998474121 163) rotate(0 33.84000015258789 12.5)"><text x="33.84000015258789" y="17.52" font-family="Virgil, Segoe UI Emoji" font-size="20px" fill="#1e1e1e" text-anchor="middle" style="white-space: pre;" direction="ltr" dominant-baseline="alphabetic">Field 2</text></g><g transform="translate(466.9650001525879 315) rotate(0 33.15999984741211 12.5)"><text x="33.15999984741211" y="17.52" font-family="Virgil, Segoe UI Emoji" font-size="20px" fill="#1e1e1e" text-anchor="middle" style="white-space: pre;" direction="ltr" dominant-baseline="alphabetic">Field N</text></g><g transform="translate(614.2706260681152 63) rotate(0 26.119998931884766 12.5)"><text x="26.119998931884766" y="17.52" font-family="Virgil, Segoe UI Emoji" font-size="20px" fill="#1e1e1e" text-anchor="middle" style="white-space: pre;" direction="ltr" dominant-baseline="alphabetic">Row 1</text></g><g transform="translate(610.8606262207031 134) rotate(0 30.529998779296875 12.5)"><text x="30.529998779296875" y="17.52" font-family="Virgil, Segoe UI Emoji" font-size="20px" fill="#1e1e1e" text-anchor="middle" style="white-space: pre;" direction="ltr" dominant-baseline="alphabetic">Row 2</text></g><g transform="translate(610.5406246185303 365) rotate(0 29.850000381469727 12.5)"><text x="29.850000381469727" y="17.52" font-family="Virgil, Segoe UI Emoji" font-size="20px" fill="#1e1e1e" text-anchor="middle" style="white-space: pre;" direction="ltr" dominant-baseline="alphabetic">Row N</text></g></svg>
